<svg xmlns="http://www.w3.org/2000/svg" viewBox="0 0 495 240" xml:space="preserve"><path fill="none" d="M0 0h495v240H0z"/><path fill="none" d="M20 20h200v200H20z"/><g fill="#F88379"><path d="M170.6 188.8c-4.1 0-7.5 3.4-7.5 7.5s3.4 7.5 7.5 7.5 7.5-3.4 7.5-7.5-3.4-7.5-7.5-7.5zm0 10.7c-1.8 0-3.3-1.5-3.3-3.3 0-1.8 1.5-3.3 3.3-3.3 1.8 0 3.3 1.5 3.3 3.3-.1 1.8-1.5 3.3-3.3 3.3zM123.4 38.5c5.1 0 9.3-4.2 9.3-9.3s-4.2-9.3-9.3-9.3c-5.1 0-9.3 4.2-9.3 9.3s4.2 9.3 9.3 9.3zm0-14.3c2.8 0 5.1 2.3 5.1 5.1s-2.3 5.1-5.1 5.1-5.1-2.3-5.1-5.1 2.3-5.1 5.1-5.1zM64 103.1c0 5.1 4.1 9.2 9.2 9.2s9.2-4.1 9.2-9.2-4.1-9.2-9.2-9.2c-5 0-9.2 4.1-9.2 9.2zm9.3-5c2.8 0 5 2.3 5 5 0 2.8-2.3 5-5 5-2.8 0-5-2.3-5-5s2.2-5 5-5zM169.1 54.5c4.1 0 7.5-3.4 7.5-7.5s-3.4-7.5-7.5-7.5-7.5 3.4-7.5 7.5 3.3 7.5 7.5 7.5zm0-10.8c1.8 0 3.3 1.5 3.3 3.3 0 1.8-1.5 3.3-3.3 3.3-1.8 0-3.3-1.5-3.3-3.3 0-1.8 1.4-3.3 3.3-3.3z"/><path d="M189.7 101.9h-8.6c-2.2 0-3.9-1.8-3.9-3.9V72.5c0-4.5-3.7-8.2-8.2-8.2-4.5 0-8.2 3.7-8.2 8.2v6.6c0 2.2-1.8 3.9-3.9 3.9h-5.5c-4.5 0-8.1 3.7-8.1 8.1 0 4.5 3.7 8.2 8.1 8.2h5.5c2.2 0 3.9 1.8 3.9 3.9v11.2c0 2.2-1.8 3.9-3.9 3.9h-10.5c-4.5 0-8.2 3.7-8.2 8.2 0 4.5 3.7 8.2 8.2 8.2H157c2.2 0 3.9 1.8 3.9 3.9v3.3c0 2.2-1.8 3.9-3.9 3.9h-21.4c-2.2 0-3.9-1.8-3.9-3.9v-81c-.4-4.1-3.9-7.4-8.1-7.4-4.2 0-7.7 3.2-8.1 7.4v14.6c0 2.2-1.8 3.9-3.9 3.9h-5c-2.2 0-3.9-1.8-3.9-3.9V29.7c0-4.5-3.7-8.1-8.1-8.1-4.5 0-8.2 3.7-8.2 8.1v57.9c0 4.5 3.7 8.2 8.2 8.2h17.1c2.2 0 3.9 1.8 3.9 3.9v68.8c0 2.2-1.8 3.9-3.9 3.9h-26c-2.2 0-3.9-1.8-3.9-3.9v-11.9c0-1.1.4-2 1.2-2.8.7-.7 1.7-1.2 2.8-1.2h13.7c2.2 0 4.2-.8 5.8-2.4 1.5-1.5 2.4-3.6 2.4-5.7v-34.1c0-4.5-3.7-8.2-8.1-8.2-4.5 0-8.2 3.7-8.2 8.2v22c0 1.1-.4 2-1.2 2.8-.7.7-1.7 1.2-2.8 1.2h-1.6c-1.1 0-2-.4-2.8-1.2-.7-.7-1.2-1.7-1.2-2.8v-3.5c0-4.5-3.7-8.2-8.1-8.2-4.5 0-8.2 3.7-8.2 8.2v19.2c0 2.2-1.8 3.9-3.9 3.9H50.3c-4.5 0-8.2 3.7-8.2 8.1s3.7 8.2 8.2 8.2h10.9c2.2 0 3.9 1.8 3.9 3.9v8.3c0 4.3 3.3 7.8 7.5 8.1.2.1.4.1.7.1h38.1c2.2 0 3.9 1.8 3.9 3.9v25.2c0 1.2.9 2.1 2.1 2.1h12.1c1.2 0 2.1-.9 2.1-2.1v-9.6c0-2.2 1.8-3.9 3.9-3.9h12.9c4.5 0 8.1-3.7 8.1-8.2 0-4.5-3.7-8.2-8.1-8.2h-12.9c-2.2 0-3.9-1.8-3.9-3.9v-17.9c0-2.2 1.8-3.9 3.9-3.9H169c4.5 0 8.2-3.7 8.2-8.1v-31.9c0-2.2 1.8-3.9 3.9-3.9h8.6c4.5 0 8.2-3.7 8.2-8.1 0-4.6-3.7-8.3-8.2-8.3zM157 95.1h-5.5c-2.2 0-3.9-1.8-3.9-3.9s1.8-3.9 3.9-3.9h6.1c4.3-.3 7.6-3.8 7.6-8.1v-6.6c0-2.2 1.8-3.9 3.9-3.9 2.2 0 3.9 1.8 3.9 3.9V98c0 .3 0 .6.1.9h-9.2c-1.5-2.2-4.1-3.8-6.9-3.8zm-37.5 11.3h7.9V137h-7.9v-30.6zm3.9-48.7c2.2 0 3.9 1.8 3.9 3.9v5.7h-7.9v-5.7c.1-2.1 1.9-3.9 4-3.9zM90.3 36.1h7.9v31.3h-7.9V36.1zm3.9-10.3c2.2 0 3.9 1.8 3.9 3.9v2.2h-7.9v-2.2c.1-2.2 1.8-3.9 4-3.9zm17.1 65.7H94.2c-2.2 0-3.9-1.8-3.9-3.9v-16h7.9v3.9c0 4.5 3.7 8.2 8.2 8.2h5c4.5 0 8.2-3.7 8.2-8.2v-3.9h7.9v30.6h-7.9v-2.5c-.1-4.5-3.8-8.2-8.3-8.2zm-12.2 14.9c2.2 0 3.9 1.8 3.9 3.9v13.4h-7.9v-13.4c.1-2.1 1.8-3.9 4-3.9zm-37.9 57.7H50.3c-2.2 0-3.9-1.8-3.9-3.9 0-2.2 1.8-3.9 3.9-3.9h10.9c4.3 0 7.8-3.3 8.1-7.5v-19.9c0-2.2 1.8-3.9 3.9-3.9 2.2 0 3.9 1.8 3.9 3.9v4c.1 2 .9 3.9 2.3 5.3 1.5 1.5 3.6 2.4 5.8 2.4H87c2.2 0 4.2-.8 5.8-2.4 1.5-1.5 2.4-3.6 2.4-5.8v-4.5h7.9v16.6c0 1.1-.4 2-1.2 2.8-.7.7-1.7 1.2-2.8 1.2H85.4c-2.2 0-4.2.8-5.8 2.4-1.4 1.4-2.2 3.3-2.3 5.3v12.3h-8.8c-1.5-2.6-4.2-4.4-7.3-4.4zm58.3 51.7v-5h7.9v5h-7.9zm16-23.5h12.9c2.2 0 3.9 1.8 3.9 3.9 0 2.2-1.8 3.9-3.9 3.9h-12.9c-3.9 0-7.2 2.8-8 6.4h-8.1v-13.9c0-4.5-3.7-8.2-8.2-8.2H73.9c-.2-.1-.4-.1-.6-.1-2.2 0-3.9-1.8-3.9-3.9v-7.9h9c1.4 2.4 4 4 7 4h41.9v7.5c.1 4.6 3.7 8.3 8.2 8.3zm33.6-34.2h-33.5c-4.5 0-8.2 3.7-8.2 8.2v6.2h-8.9c.7-1.2 1-2.5 1-3.9v-27.3h7.9v.8c0 4.5 3.7 8.2 8.1 8.2H157c4.5 0 8.1-3.7 8.1-8.2v-.8h7.9v12.9c0 2.1-1.8 3.9-3.9 3.9zm20.6-44.1h-8.6c-4.5 0-8.2 3.7-8.2 8.2V137h-8.1c-.8-3.7-4.1-6.4-8-6.4h-10.5c-2.2 0-3.9-1.8-3.9-3.9s1.8-3.9 3.9-3.9H157c4.5 0 8.1-3.7 8.1-8.1V103.3h9.7c1.5 1.8 3.8 3 6.3 3h8.6c2.2 0 3.9 1.8 3.9 3.9.1 2.1-1.7 3.8-3.9 3.8z"/></g><g fill="#FFF"><g opacity=".95"><path d="M286.3 148.6c-.1 6-2.2 11.1-6.3 15.3s-9.3 6.3-15.4 6.5c-6.1-.1-11.2-2.3-15.3-6.4-4.1-4.1-6.2-9.4-6.4-15.8.2-5.8 2.3-10.7 6.4-14.9s9.2-6.3 15.3-6.4c1.7 0 3.1.7 4.3 1.9 1.2 1.2 1.8 2.6 1.8 4.3 0 1.7-.6 3.2-1.8 4.4-1.2 1.2-2.7 1.8-4.3 1.8-2.6 0-4.8.9-6.6 2.8-1.8 1.9-2.7 4.1-2.7 6.6 0 2.6.9 4.8 2.7 6.6 1.8 1.9 4 2.8 6.6 2.8 2.6 0 4.7-.9 6.6-2.8 1.8-1.9 2.7-4.1 2.7-6.6 0-1.7.6-3.2 1.8-4.4 1.2-1.2 2.7-1.8 4.4-1.8 1.7 0 3.2.6 4.4 1.8 1.2 1.1 1.8 2.6 1.8 4.3zM313.8 126.9c6.1.1 11.2 2.3 15.3 6.4 4.1 4.1 6.2 9.2 6.4 15.3-.2 6.1-2.3 11.2-6.4 15.3-4.1 4.1-9.2 6.2-15.3 6.4-6.2-.1-11.3-2.3-15.3-6.4-4.1-4.1-6.2-9.2-6.4-15.3.2-6.1 2.3-11.2 6.4-15.3 4-4.1 9.2-6.3 15.3-6.4zm9.3 21.7c0-2.5-.9-4.8-2.7-6.6-1.8-1.9-4-2.8-6.6-2.8-2.6 0-4.8.9-6.6 2.8-1.8 1.9-2.7 4.1-2.7 6.6 0 2.6.9 4.8 2.7 6.6 1.8 1.9 4 2.8 6.6 2.8 2.6 0 4.7-.9 6.6-2.8 1.8-1.8 2.7-4 2.7-6.6zM384.8 148.6c0 1.7-.6 3.2-1.8 4.4-1.2 1.2-2.6 1.8-4.4 1.8-1.7 0-3.1-.6-4.4-1.8-1.2-1.2-1.8-2.6-1.8-4.4 0-2.5-.9-4.8-2.7-6.6-1.8-1.9-4-2.8-6.6-2.8-2.6 0-4.8.9-6.6 2.8-1.8 1.9-2.7 4.1-2.7 6.6v15.6c0 1.7-.6 3.2-1.8 4.4-1.2 1.2-2.7 1.8-4.4 1.8-1.7 0-3.2-.6-4.4-1.8-1.2-1.2-1.8-2.6-1.8-4.4v-16c.2-5.8 2.3-10.8 6.4-14.9 4.1-4.1 9.2-6.2 15.3-6.4 6.1.1 11.2 2.3 15.3 6.5s6.3 9.2 6.4 15.2zM412.3 126.9c6.1.1 11.2 2.3 15.3 6.4 4.1 4.1 6.2 9.1 6.4 14.9v16c0 1.7-.6 3.2-1.8 4.4-1.2 1.2-2.6 1.8-4.4 1.8-1.7 0-3.1-.6-4.4-1.8-1.2-1.2-1.8-2.6-1.8-4.4v-15.6c0-2.5-.9-4.8-2.7-6.6-1.8-1.9-4-2.8-6.6-2.8-2.6 0-4.8.9-6.6 2.8-1.8 1.9-2.7 4.1-2.7 6.6 0 2.6.9 4.8 2.7 6.6 1.8 1.9 4 2.8 6.6 2.8 1.6 0 3.1.6 4.3 1.8 1.2 1.2 1.8 2.6 1.8 4.4 0 1.7-.6 3.1-1.8 4.3-1.2 1.2-2.6 1.8-4.3 1.9-6.1-.1-11.2-2.2-15.3-6.4-4.1-4.1-6.2-9.3-6.4-15.4.2-6.1 2.3-11.2 6.4-15.3 4-4.1 9.1-6.3 15.3-6.4zM445.9 119.1c1.7 0 3.1.6 4.4 1.8 1.2 1.2 1.8 2.7 1.8 4.4v38.8c0 1.7-.6 3.2-1.8 4.4-1.2 1.2-2.7 1.8-4.4 1.8-1.7 0-3.2-.6-4.4-1.8-1.2-1.2-1.8-2.6-1.8-4.4v-38.8c0-1.7.6-3.1 1.8-4.4 1.2-1.2 2.6-1.8 4.4-1.8z"/></g><g opacity=".95"><path d="M251.3 70.7c0 .7-.2 1.3-.7 1.8-.5.5-1.1.7-1.8.7s-1.3-.2-1.8-.7c-.5-.5-.7-1.1-.7-1.8s.2-1.3.7-1.8c.5-.5 1.1-.7 1.8-.7s1.3.2 1.8.7c.5.5.7 1.1.7 1.8zm-4.4 10.1c0-.5.2-1 .5-1.3.4-.4.8-.5 1.3-.5s1 .2 1.4.5.6.8.6 1.3V111c0 .5-.2 1-.6 1.3s-.8.5-1.4.5-1-.2-1.3-.5c-.4-.4-.5-.8-.5-1.3V80.8zM258.8 80.8c0-.5.2-1 .5-1.3.4-.4.8-.5 1.3-.5s1 .2 1.3.5c.4.4.5.8.5 1.3v3.5c3.7-3.6 7.7-5.4 12-5.4 4.4 0 8.1 1.5 11.1 4.6 3.1 3.1 4.6 6.8 4.6 11.1V111c0 .5-.2 1-.6 1.3-.4.4-.8.5-1.4.5-.5 0-1-.2-1.3-.5s-.5-.8-.5-1.3V94.6c0-3.3-1.2-6.2-3.5-8.4-2.3-2.4-5.2-3.6-8.4-3.6s-6.1 1.2-8.5 3.6c-2.3 2.3-3.5 5.1-3.5 8.4V111c0 .5-.2 1-.5 1.3-.4.4-.8.5-1.3.5s-1-.2-1.3-.5c-.4-.4-.5-.8-.5-1.3V80.8zM322.9 109.7v-.6c-1.5 1.2-3.2 2.1-5 2.8-1.8.6-3.7 1-5.7 1-4.7 0-8.7-1.7-12-5-3.3-3.3-5-7.3-5-12s1.7-8.7 5-12c3.3-3.3 7.3-5 12-5s8.7 1.7 12 5c3.3 3.3 5 7.3 5 12v13.8c0 .9-.3 1.6-.9 2.2-.6.6-1.4.9-2.2.9-.9 0-1.6-.3-2.3-.9-.6-.6-.9-1.3-.9-2.2zm-10.7-24.5c-1.5 0-2.9.3-4.2.9s-2.4 1.3-3.4 2.3c-1 1-1.7 2.1-2.3 3.4-.6 1.3-.8 2.7-.8 4.1s.3 2.8.8 4.1c.6 1.3 1.3 2.4 2.3 3.4 1 1 2.1 1.7 3.4 2.3s2.7.8 4.2.8 2.9-.3 4.2-.8c1.3-.6 2.4-1.3 3.4-2.3 1-1 1.7-2.1 2.3-3.4.6-1.3.8-2.7.8-4.1s-.3-2.8-.8-4.1c-.6-1.3-1.3-2.4-2.3-3.4-1-1-2.1-1.7-3.4-2.3-1.3-.6-2.7-.9-4.2-.9zM360 103.2c.9 0 1.7.3 2.3.9.6.6.9 1.4.9 2.3 0 .9-.3 1.7-1 2.3-3.1 2.8-6.8 4.1-11.1 4.1-4.7 0-8.7-1.7-12-5-3.3-3.3-5-7.3-5-12s1.7-8.7 5-12c3.3-3.3 7.3-5 12-5 4.3 0 8 1.4 11.1 4.1.7.6 1.1 1.4 1.1 2.4 0 .9-.3 1.7-.9 2.3s-1.4.9-2.3.9c-.8 0-1.5-.2-2.1-.7-1-.9-2.1-1.5-3.3-2-1.1-.4-2.4-.7-3.7-.7-1.5 0-2.9.3-4.2.8s-2.4 1.3-3.4 2.3c-1 1-1.7 2.1-2.3 3.4-.6 1.3-.8 2.7-.8 4.2s.3 2.9.8 4.2c.6 1.3 1.3 2.4 2.3 3.4 1 1 2.1 1.7 3.4 2.3s2.7.8 4.2.8c1.3 0 2.6-.2 3.7-.7 1.1-.4 2.2-1.1 3.2-2 .7-.3 1.3-.5 2.1-.6zM394 103.2c.9 0 1.7.3 2.3.9.6.6.9 1.4.9 2.3 0 .9-.3 1.7-1 2.3-3.1 2.8-6.8 4.1-11.1 4.1-4.7 0-8.7-1.7-12-5-3.3-3.3-5-7.3-5-12s1.7-8.7 5-12c3.3-3.3 7.3-5 12-5 4.3 0 8 1.4 11.1 4.1.7.6 1.1 1.4 1.1 2.4 0 .9-.3 1.7-.9 2.3s-1.4.9-2.3.9c-.8 0-1.5-.2-2.1-.7-1-.9-2.1-1.5-3.3-2-1.1-.4-2.4-.7-3.7-.7-1.5 0-2.9.3-4.2.8s-2.4 1.3-3.4 2.3c-1 1-1.7 2.1-2.3 3.4-.6 1.3-.8 2.7-.8 4.2s.3 2.9.8 4.2c.6 1.3 1.3 2.4 2.3 3.4 1 1 2.1 1.7 3.4 2.3s2.7.8 4.2.8c1.3 0 2.6-.2 3.7-.7 1.1-.4 2.2-1.1 3.2-2 .7-.3 1.3-.5 2.1-.6zM428 103.3c.9 0 1.7.3 2.3.9.6.6.9 1.4.9 2.3 0 .9-.3 1.6-.9 2.3-3.1 2.8-6.8 4.1-11.1 4.1-4.7 0-8.7-1.7-12-5-3.3-3.3-5-7.3-5-12s1.7-8.7 5-12c3.3-3.3 7.3-5 12-5s8.7 1.7 12 5c1.7 1.6 2.9 3.5 3.7 5.5s1.2 4.2 1.2 6.5c0 .9-.3 1.7-.9 2.3-.6.6-1.4.9-2.3.9h-24.1c.3 1.1.9 2.1 1.5 3.1.7.9 1.5 1.7 2.4 2.4.9.7 1.9 1.2 3 1.5s2.2.5 3.4.5c1.3 0 2.6-.2 3.7-.6 1.1-.4 2.1-1 3.1-1.8.6-.6 1.3-.9 2.1-.9zm1.4-10.6c-.3-1.1-.9-2.1-1.5-3.1-.7-.9-1.5-1.7-2.4-2.4-.9-.7-1.9-1.2-3-1.5s-2.2-.5-3.4-.5c-1.2 0-2.3.2-3.4.5s-2.1.9-3 1.5c-.9.7-1.7 1.4-2.4 2.4-.7.9-1.2 1.9-1.5 3.1h20.6zM440.7 109.7V67.5c0-.9.3-1.6.9-2.3.6-.6 1.4-.9 2.3-.9s1.7.3 2.3.9c.6.6.9 1.4.9 2.3v39h1.5c.9 0 1.6.3 2.2.9.6.6.9 1.4.9 2.3 0 .9-.3 1.6-.9 2.2-.6.6-1.4.9-2.2.9H444c-.9 0-1.6-.3-2.2-.9s-1.1-1.3-1.1-2.2z"/></g></g></svg>
