<?xml version="1.0" encoding="utf-8"?>
<!DOCTYPE svg PUBLIC "-//W3C//DTD SVG 1.1//EN" "http://www.w3.org/Graphics/SVG/1.1/DTD/svg11.dtd">
<svg version="1.1" id="Layer_1" xmlns="http://www.w3.org/2000/svg" xmlns:xlink="http://www.w3.org/1999/xlink" x="0px" y="0px"
	 viewBox="0 0 573.5 465" enable-background="new 0 0 573.5 465" xml:space="preserve">
<g>
	<path fill="none" d="M364,75"/>
</g>
<g>
	<path fill="none" d="M171.5,158.9"/>
</g>
<path fill="#F88379" d="M521.5,190h-126c-6.6,0-12-5.4-12-12V52c0-6.6,5.4-12,12-12h126c6.6,0,12,5.4,12,12v126
	C533.5,184.6,528.1,190,521.5,190z"/>
<path fill="#2E3336" d="M446.5,106.7h-34.3c-6.6,0-12-5.4-12-12v-26c0-6.6,5.4-12,12-12h34.3c6.6,0,12,5.4,12,12v26
	C458.5,101.3,453.1,106.7,446.5,106.7z"/>
<g>
	<path fill="#F5F8FA" d="M429,167.5c-1.2,0-2.1,0.4-2.8,1.2c-0.7,0.8-1,1.9-1,3.2c0,1.4,0.3,2.5,1,3.2c0.7,0.8,1.6,1.1,2.8,1.1
		c0.7,0,1.6-0.1,2.6-0.4v1.1c-0.7,0.3-1.7,0.4-2.7,0.4c-1.6,0-2.8-0.5-3.7-1.4c-0.9-1-1.3-2.3-1.3-4.1c0-1.1,0.2-2.1,0.6-2.9
		c0.4-0.8,1-1.5,1.8-1.9c0.8-0.4,1.7-0.7,2.7-0.7c1.1,0,2.1,0.2,2.9,0.6l-0.5,1.1C430.6,167.7,429.8,167.5,429,167.5z"/>
	<path fill="#F5F8FA" d="M437.2,171.5h3v1h-3v3.1h-1v-3.1h-3v-1h3v-3.1h1V171.5z"/>
	<path fill="#F5F8FA" d="M445.8,171.5h3v1h-3v3.1h-1v-3.1h-3v-1h3v-3.1h1V171.5z"/>
	<path fill="#F5F8FA" d="M459.5,167.5c-1.2,0-2.1,0.4-2.8,1.2c-0.7,0.8-1,1.9-1,3.2c0,1.4,0.3,2.5,1,3.2c0.7,0.8,1.6,1.1,2.8,1.1
		c0.7,0,1.6-0.1,2.6-0.4v1.1c-0.7,0.3-1.7,0.4-2.7,0.4c-1.6,0-2.8-0.5-3.7-1.4c-0.9-1-1.3-2.3-1.3-4.1c0-1.1,0.2-2.1,0.6-2.9
		c0.4-0.8,1-1.5,1.8-1.9c0.8-0.4,1.7-0.7,2.7-0.7c1.1,0,2.1,0.2,2.9,0.6l-0.5,1.1C461.2,167.7,460.3,167.5,459.5,167.5z"/>
	<path fill="#F5F8FA" d="M465.4,177.3h-1.2v-11.4h1.2V177.3z"/>
	<path fill="#F5F8FA" d="M467.9,167.1c0-0.3,0.1-0.5,0.2-0.6s0.3-0.2,0.5-0.2c0.2,0,0.4,0.1,0.5,0.2s0.2,0.3,0.2,0.6
		s-0.1,0.5-0.2,0.6c-0.1,0.1-0.3,0.2-0.5,0.2c-0.2,0-0.4-0.1-0.5-0.2C468,167.5,467.9,167.3,467.9,167.1z M469.2,177.3H468v-8h1.2
		V177.3z"/>
	<path fill="#F5F8FA" d="M475.2,177.4c-1.2,0-2.1-0.4-2.8-1.1c-0.7-0.7-1-1.7-1-3c0-1.3,0.3-2.3,1-3.1c0.6-0.8,1.5-1.1,2.6-1.1
		c1,0,1.8,0.3,2.4,1s0.9,1.5,0.9,2.6v0.8h-5.5c0,0.9,0.3,1.7,0.7,2.1c0.5,0.5,1.1,0.7,1.9,0.7c0.9,0,1.7-0.2,2.6-0.5v1.1
		c-0.4,0.2-0.8,0.3-1.2,0.4C476.2,177.4,475.7,177.4,475.2,177.4z M474.9,170.1c-0.6,0-1.2,0.2-1.5,0.6c-0.4,0.4-0.6,1-0.7,1.7h4.2
		c0-0.8-0.2-1.4-0.5-1.8C476,170.3,475.5,170.1,474.9,170.1z"/>
	<path fill="#F5F8FA" d="M485.7,177.3v-5.2c0-0.7-0.1-1.1-0.4-1.5s-0.8-0.5-1.4-0.5c-0.8,0-1.5,0.2-1.8,0.7s-0.6,1.2-0.6,2.2v4.2
		h-1.2v-8h1l0.2,1.1h0.1c0.2-0.4,0.6-0.7,1-0.9c0.4-0.2,0.9-0.3,1.5-0.3c1,0,1.7,0.2,2.2,0.7s0.7,1.2,0.7,2.2v5.2H485.7z"/>
	<path fill="#F5F8FA" d="M492,176.4c0.2,0,0.4,0,0.6,0c0.2,0,0.4-0.1,0.5-0.1v0.9c-0.1,0.1-0.3,0.1-0.6,0.2c-0.3,0-0.5,0.1-0.7,0.1
		c-1.6,0-2.3-0.8-2.3-2.5v-4.8h-1.1v-0.6l1.1-0.5l0.5-1.7h0.7v1.9h2.3v0.9h-2.3v4.7c0,0.5,0.1,0.9,0.3,1.1S491.6,176.4,492,176.4z"
		/>
</g>
<g>
	<path fill="#F5F8FA" d="M426.9,86.1l-1.3-3.4h-4.3l-1.3,3.4h-1.3l4.2-10.8h1l4.2,10.8H426.9z M425.2,81.5l-1.2-3.3
		c-0.2-0.4-0.3-0.9-0.5-1.5c-0.1,0.5-0.3,1-0.5,1.5l-1.3,3.3H425.2z"/>
	<path fill="#F5F8FA" d="M436.5,78.5c0,1.1-0.4,1.9-1.1,2.5c-0.7,0.6-1.8,0.9-3.2,0.9h-1.3v4.2h-1.2V75.4h2.8
		C435.1,75.4,436.5,76.4,436.5,78.5z M430.9,80.8h1.1c1.1,0,1.9-0.2,2.4-0.5s0.7-0.9,0.7-1.7c0-0.7-0.2-1.2-0.7-1.6
		s-1.2-0.5-2.2-0.5h-1.4V80.8z"/>
	<path fill="#F5F8FA" d="M438.7,86.1V75.4h1.2v10.7H438.7z"/>
</g>
<path fill="#F88379" d="M521.5,424h-126c-6.6,0-12-5.4-12-12V286c0-6.6,5.4-12,12-12h126c6.6,0,12,5.4,12,12v126
	C533.5,418.6,528.1,424,521.5,424z"/>
<path fill="#2E3336" d="M446.5,340.7h-34.3c-6.6,0-12-5.4-12-12v-26c0-6.6,5.4-12,12-12h34.3c6.6,0,12,5.4,12,12v26
	C458.5,335.3,453.1,340.7,446.5,340.7z"/>
<g>
	<path fill="#F5F8FA" d="M419.6,403.7c0,1.1-0.4,1.9-1.1,2.5c-0.7,0.6-1.8,0.9-3.2,0.9H414v4.2h-1.2v-10.7h2.8
		C418.2,400.6,419.6,401.6,419.6,403.7z M414,406h1.1c1.1,0,1.9-0.2,2.4-0.5s0.7-0.9,0.7-1.7c0-0.7-0.2-1.2-0.7-1.6
		s-1.2-0.5-2.2-0.5H414V406z"/>
	<path fill="#F5F8FA" d="M420.4,403.2h1.3l1.8,4.6c0.4,1,0.6,1.8,0.7,2.3h0.1c0.1-0.2,0.2-0.7,0.4-1.3s0.9-2.5,2-5.6h1.3l-3.4,9.1
		c-0.3,0.9-0.7,1.5-1.2,1.9c-0.5,0.4-1,0.6-1.7,0.6c-0.4,0-0.7,0-1.1-0.1v-1c0.3,0.1,0.6,0.1,0.9,0.1c0.8,0,1.4-0.5,1.8-1.4l0.4-1.1
		L420.4,403.2z"/>
	<path fill="#F5F8FA" d="M431.8,410.4c0.2,0,0.4,0,0.6,0c0.2,0,0.4-0.1,0.5-0.1v0.9c-0.1,0.1-0.3,0.1-0.6,0.2
		c-0.3,0-0.5,0.1-0.7,0.1c-1.6,0-2.3-0.8-2.3-2.5v-4.8h-1.1v-0.6l1.1-0.5l0.5-1.7h0.7v1.9h2.3v0.9h-2.3v4.7c0,0.5,0.1,0.9,0.3,1.1
		S431.4,410.4,431.8,410.4z"/>
	<path fill="#F5F8FA" d="M440,411.3v-5.2c0-0.7-0.1-1.1-0.4-1.5s-0.8-0.5-1.4-0.5c-0.8,0-1.5,0.2-1.8,0.7c-0.4,0.5-0.6,1.2-0.6,2.3
		v4.2h-1.2v-11.4h1.2v3.4c0,0.4,0,0.8-0.1,1h0.1c0.2-0.4,0.6-0.7,1-0.9c0.4-0.2,0.9-0.3,1.5-0.3c1,0,1.7,0.2,2.2,0.7
		c0.5,0.5,0.7,1.2,0.7,2.2v5.2H440z"/>
	<path fill="#F5F8FA" d="M450.6,407.3c0,1.3-0.3,2.3-1,3.1s-1.6,1.1-2.7,1.1c-0.7,0-1.4-0.2-1.9-0.5s-1-0.8-1.3-1.5
		s-0.5-1.4-0.5-2.2c0-1.3,0.3-2.3,1-3.1s1.6-1.1,2.7-1.1c1.1,0,2,0.4,2.7,1.1S450.6,406,450.6,407.3z M444.5,407.3
		c0,1,0.2,1.8,0.6,2.3s1,0.8,1.8,0.8s1.4-0.3,1.8-0.8c0.4-0.5,0.6-1.3,0.6-2.3c0-1-0.2-1.8-0.6-2.3c-0.4-0.5-1-0.8-1.8-0.8
		c-0.8,0-1.4,0.3-1.8,0.8S444.5,406.2,444.5,407.3z"/>
	<path fill="#F5F8FA" d="M458.2,411.3v-5.2c0-0.7-0.1-1.1-0.4-1.5s-0.8-0.5-1.4-0.5c-0.8,0-1.5,0.2-1.8,0.7s-0.6,1.2-0.6,2.2v4.2
		h-1.2v-8h1l0.2,1.1h0.1c0.2-0.4,0.6-0.7,1-0.9c0.4-0.2,0.9-0.3,1.5-0.3c1,0,1.7,0.2,2.2,0.7s0.7,1.2,0.7,2.2v5.2H458.2z"/>
	<path fill="#F5F8FA" d="M470.6,401.5c-1.2,0-2.1,0.4-2.8,1.2c-0.7,0.8-1,1.9-1,3.2c0,1.4,0.3,2.5,1,3.2c0.7,0.8,1.6,1.1,2.8,1.1
		c0.7,0,1.6-0.1,2.6-0.4v1.1c-0.7,0.3-1.7,0.4-2.7,0.4c-1.6,0-2.8-0.5-3.7-1.4c-0.9-1-1.3-2.3-1.3-4.1c0-1.1,0.2-2.1,0.6-2.9
		c0.4-0.8,1-1.5,1.8-1.9c0.8-0.4,1.7-0.7,2.7-0.7c1.1,0,2.1,0.2,2.9,0.6l-0.5,1.1C472.2,401.7,471.4,401.5,470.6,401.5z"/>
	<path fill="#F5F8FA" d="M476.5,411.3h-1.2v-11.4h1.2V411.3z"/>
	<path fill="#F5F8FA" d="M479,401.1c0-0.3,0.1-0.5,0.2-0.6s0.3-0.2,0.5-0.2c0.2,0,0.4,0.1,0.5,0.2s0.2,0.3,0.2,0.6s-0.1,0.5-0.2,0.6
		c-0.1,0.1-0.3,0.2-0.5,0.2c-0.2,0-0.4-0.1-0.5-0.2C479.1,401.5,479,401.3,479,401.1z M480.3,411.3h-1.2v-8h1.2V411.3z"/>
	<path fill="#F5F8FA" d="M486.3,411.4c-1.2,0-2.1-0.4-2.8-1.1c-0.7-0.7-1-1.7-1-3c0-1.3,0.3-2.3,1-3.1c0.6-0.8,1.5-1.1,2.6-1.1
		c1,0,1.8,0.3,2.4,1s0.9,1.5,0.9,2.6v0.8h-5.5c0,0.9,0.3,1.7,0.7,2.1s1.1,0.7,1.9,0.7c0.9,0,1.7-0.2,2.6-0.5v1.1
		c-0.4,0.2-0.8,0.3-1.2,0.4C487.3,411.4,486.8,411.4,486.3,411.4z M486,404.1c-0.6,0-1.2,0.2-1.5,0.6c-0.4,0.4-0.6,1-0.7,1.7h4.2
		c0-0.8-0.2-1.4-0.5-1.8C487.1,404.3,486.6,404.1,486,404.1z"/>
	<path fill="#F5F8FA" d="M496.8,411.3v-5.2c0-0.7-0.1-1.1-0.4-1.5s-0.8-0.5-1.4-0.5c-0.8,0-1.5,0.2-1.8,0.7s-0.6,1.2-0.6,2.2v4.2
		h-1.2v-8h1l0.2,1.1h0.1c0.2-0.4,0.6-0.7,1-0.9c0.4-0.2,0.9-0.3,1.5-0.3c1,0,1.7,0.2,2.2,0.7s0.7,1.2,0.7,2.2v5.2H496.8z"/>
	<path fill="#F5F8FA" d="M503.1,410.4c0.2,0,0.4,0,0.6,0c0.2,0,0.4-0.1,0.5-0.1v0.9c-0.1,0.1-0.3,0.1-0.6,0.2
		c-0.3,0-0.5,0.1-0.7,0.1c-1.6,0-2.3-0.8-2.3-2.5v-4.8h-1.1v-0.6l1.1-0.5l0.5-1.7h0.7v1.9h2.3v0.9h-2.3v4.7c0,0.5,0.1,0.9,0.3,1.1
		S502.7,410.4,503.1,410.4z"/>
</g>
<g>
	<path fill="#F5F8FA" d="M426.9,320.1l-1.3-3.4h-4.3l-1.3,3.4h-1.3l4.2-10.8h1l4.2,10.8H426.9z M425.2,315.5l-1.2-3.3
		c-0.2-0.4-0.3-0.9-0.5-1.5c-0.1,0.5-0.3,1-0.5,1.5l-1.3,3.3H425.2z"/>
	<path fill="#F5F8FA" d="M436.5,312.5c0,1.1-0.4,1.9-1.1,2.5c-0.7,0.6-1.8,0.9-3.2,0.9h-1.3v4.2h-1.2v-10.7h2.8
		C435.1,309.4,436.5,310.4,436.5,312.5z M430.9,314.8h1.1c1.1,0,1.9-0.2,2.4-0.5s0.7-0.9,0.7-1.7c0-0.7-0.2-1.2-0.7-1.6
		s-1.2-0.5-2.2-0.5h-1.4V314.8z"/>
	<path fill="#F5F8FA" d="M438.7,320.1v-10.7h1.2v10.7H438.7z"/>
</g>
<path fill="#F88379" d="M179,307H53c-6.6,0-12-5.4-12-12V169c0-6.6,5.4-12,12-12h126c6.6,0,12,5.4,12,12v126
	C191,301.6,185.6,307,179,307z"/>
<path fill="#2E3336" d="M162.3,223.7H69.7c-6.6,0-12-5.4-12-12v-26c0-6.6,5.4-12,12-12h92.7c6.6,0,12,5.4,12,12v26
	C174.3,218.3,168.9,223.7,162.3,223.7z"/>
<g>
	<path fill="#F5F8FA" d="M100.8,293.3c0,0.9-0.3,1.7-1,2.2s-1.6,0.8-2.8,0.8c-1.3,0-2.2-0.2-2.9-0.5v-1.2c0.4,0.2,0.9,0.3,1.4,0.4
		s1,0.2,1.5,0.2c0.8,0,1.5-0.2,1.9-0.5c0.4-0.3,0.6-0.8,0.6-1.3c0-0.4-0.1-0.7-0.2-0.9c-0.1-0.2-0.4-0.5-0.7-0.7
		c-0.3-0.2-0.9-0.4-1.6-0.7c-1-0.4-1.7-0.8-2.1-1.3s-0.6-1.1-0.6-1.9c0-0.8,0.3-1.5,0.9-2s1.4-0.7,2.5-0.7c1.1,0,2,0.2,2.9,0.6
		l-0.4,1.1c-0.9-0.4-1.7-0.6-2.6-0.6c-0.7,0-1.2,0.1-1.5,0.4s-0.6,0.7-0.6,1.2c0,0.4,0.1,0.7,0.2,0.9c0.1,0.2,0.4,0.5,0.7,0.7
		c0.3,0.2,0.8,0.4,1.5,0.7c1.1,0.4,1.9,0.8,2.3,1.3C100.6,292,100.8,292.6,100.8,293.3z"/>
	<path fill="#F5F8FA" d="M106.2,296.3c-1.2,0-2.1-0.4-2.8-1.1c-0.7-0.7-1-1.7-1-3c0-1.3,0.3-2.3,1-3.1c0.6-0.8,1.5-1.1,2.6-1.1
		c1,0,1.8,0.3,2.4,1s0.9,1.5,0.9,2.6v0.8h-5.5c0,0.9,0.3,1.7,0.7,2.1s1.1,0.7,1.9,0.7c0.9,0,1.7-0.2,2.6-0.5v1.1
		c-0.4,0.2-0.8,0.3-1.2,0.4C107.2,296.3,106.8,296.3,106.2,296.3z M105.9,289c-0.6,0-1.2,0.2-1.5,0.6c-0.4,0.4-0.6,1-0.7,1.7h4.2
		c0-0.8-0.2-1.4-0.5-1.8C107,289.2,106.5,289,105.9,289z"/>
	<path fill="#F5F8FA" d="M114.9,288c0.4,0,0.7,0,1,0.1l-0.2,1.1c-0.3-0.1-0.6-0.1-0.9-0.1c-0.6,0-1.2,0.3-1.7,0.8
		c-0.5,0.5-0.7,1.2-0.7,2v4.3h-1.2v-8h1l0.1,1.5h0.1c0.3-0.5,0.7-0.9,1.1-1.2S114.4,288,114.9,288z"/>
	<path fill="#F5F8FA" d="M119.1,296.2l-3-8h1.3l1.7,4.8c0.4,1.1,0.6,1.8,0.7,2.2h0.1c0.1-0.3,0.2-0.8,0.5-1.6
		c0.3-0.8,0.9-2.6,1.9-5.3h1.3l-3,8H119.1z"/>
	<path fill="#F5F8FA" d="M128.3,296.3c-1.2,0-2.1-0.4-2.8-1.1c-0.7-0.7-1-1.7-1-3c0-1.3,0.3-2.3,1-3.1c0.6-0.8,1.5-1.1,2.6-1.1
		c1,0,1.8,0.3,2.4,1s0.9,1.5,0.9,2.6v0.8h-5.5c0,0.9,0.3,1.7,0.7,2.1s1.1,0.7,1.9,0.7c0.9,0,1.7-0.2,2.6-0.5v1.1
		c-0.4,0.2-0.8,0.3-1.2,0.4C129.3,296.3,128.8,296.3,128.3,296.3z M127.9,289c-0.6,0-1.2,0.2-1.5,0.6c-0.4,0.4-0.6,1-0.7,1.7h4.2
		c0-0.8-0.2-1.4-0.5-1.8C129.1,289.2,128.6,289,127.9,289z"/>
	<path fill="#F5F8FA" d="M137,288c0.4,0,0.7,0,1,0.1l-0.2,1.1c-0.3-0.1-0.6-0.1-0.9-0.1c-0.6,0-1.2,0.3-1.7,0.8
		c-0.5,0.5-0.7,1.2-0.7,2v4.3h-1.2v-8h1l0.1,1.5h0.1c0.3-0.5,0.7-0.9,1.1-1.2S136.5,288,137,288z"/>
</g>
<g>
	<path fill="#F5F8FA" d="M103.9,193.3c-1.2,0-2.1,0.4-2.8,1.2c-0.7,0.8-1,1.9-1,3.2c0,1.4,0.3,2.5,1,3.2c0.7,0.8,1.6,1.1,2.8,1.1
		c0.7,0,1.6-0.1,2.6-0.4v1.1c-0.7,0.3-1.7,0.4-2.7,0.4c-1.6,0-2.8-0.5-3.7-1.4c-0.9-1-1.3-2.3-1.3-4.1c0-1.1,0.2-2.1,0.6-2.9
		c0.4-0.8,1-1.5,1.8-1.9c0.8-0.4,1.7-0.7,2.7-0.7c1.1,0,2.1,0.2,2.9,0.6l-0.5,1.1C105.5,193.5,104.7,193.3,103.9,193.3z"/>
	<path fill="#F5F8FA" d="M115.5,199c0,1.3-0.3,2.3-1,3.1s-1.6,1.1-2.7,1.1c-0.7,0-1.4-0.2-1.9-0.5s-1-0.8-1.3-1.5s-0.5-1.4-0.5-2.2
		c0-1.3,0.3-2.3,1-3.1s1.6-1.1,2.7-1.1c1.1,0,2,0.4,2.7,1.1S115.5,197.8,115.5,199z M109.4,199c0,1,0.2,1.8,0.6,2.3s1,0.8,1.8,0.8
		s1.4-0.3,1.8-0.8c0.4-0.5,0.6-1.3,0.6-2.3c0-1-0.2-1.8-0.6-2.3c-0.4-0.5-1-0.8-1.8-0.8c-0.8,0-1.4,0.3-1.8,0.8S109.4,198,109.4,199
		z"/>
	<path fill="#F5F8FA" d="M121.3,194.9c0.4,0,0.7,0,1,0.1l-0.2,1.1c-0.3-0.1-0.6-0.1-0.9-0.1c-0.6,0-1.2,0.3-1.7,0.8
		c-0.5,0.5-0.7,1.2-0.7,2v4.3h-1.2v-8h1l0.1,1.5h0.1c0.3-0.5,0.7-0.9,1.1-1.2S120.8,194.9,121.3,194.9z"/>
	<path fill="#F5F8FA" d="M128.7,203.1l-0.2-1.1h-0.1c-0.4,0.5-0.8,0.8-1.2,1c-0.4,0.2-0.9,0.3-1.5,0.3c-0.8,0-1.4-0.2-1.9-0.6
		s-0.7-1-0.7-1.8c0-1.6,1.3-2.5,3.9-2.5l1.4,0v-0.5c0-0.6-0.1-1.1-0.4-1.4c-0.3-0.3-0.7-0.5-1.3-0.5c-0.7,0-1.4,0.2-2.3,0.6
		l-0.4-0.9c0.4-0.2,0.8-0.4,1.3-0.5s0.9-0.2,1.4-0.2c1,0,1.7,0.2,2.1,0.6c0.5,0.4,0.7,1.1,0.7,2v5.5H128.7z M125.9,202.2
		c0.8,0,1.4-0.2,1.8-0.6c0.4-0.4,0.6-1,0.6-1.7v-0.7l-1.2,0.1c-1,0-1.7,0.2-2.1,0.5c-0.4,0.3-0.6,0.7-0.6,1.2c0,0.4,0.1,0.8,0.4,1
		S125.4,202.2,125.9,202.2z"/>
	<path fill="#F5F8FA" d="M133.3,203.1h-1.2v-11.4h1.2V203.1z"/>
</g>
<g>
	<g>
		<path fill="none" stroke="#2E3336" stroke-width="3" stroke-miterlimit="10" d="M161.7,232.6c10.4,51.3,113.4,91.4,239.1,91.4"/>
		<g>
			<polygon fill="#2E3336" points="156.1,235 160.8,224 167.9,233.6 			"/>
		</g>
	</g>
</g>
<g>
	<g>
		<path fill="none" stroke="#2E3336" stroke-width="3" stroke-miterlimit="10" d="M161.7,164.8c10.4-51.3,113.4-91.4,239.1-91.4"/>
		<g>
			<polygon fill="#2E3336" points="167.9,163.8 160.8,173.4 156.1,162.4 			"/>
		</g>
	</g>
</g>
<g>
	<g>
		<path fill="none" stroke="#2E3336" stroke-width="3" stroke-miterlimit="10" d="M412.5,282.3c-12.7-40.2-114.6-71.5-238.7-71.5"/>
		<g>
			<polygon fill="#2E3336" points="417.8,279.5 413.8,290.8 406.1,281.7 			"/>
		</g>
	</g>
</g>
<g>
	<g>
		<path fill="none" stroke="#2E3336" stroke-width="3" stroke-miterlimit="10" d="M412.5,115.7c-12.7,40.2-114.6,71.5-238.7,71.5"/>
		<g>
			<polygon fill="#2E3336" points="406.1,116.3 413.8,107.2 417.8,118.4 			"/>
		</g>
	</g>
</g>
<g>
	<path fill="#F88379" d="M254.6,82.2l1.3,4.1l-1.1,0.4l-3.1-9.8l2.7-0.9c1.2-0.4,2.2-0.4,2.9-0.2c0.7,0.3,1.2,0.9,1.5,1.8
		c0.4,1.3,0,2.4-1.1,3.3l4.1,3.6l-1.3,0.4l-3.7-3.3L254.6,82.2z M254.2,81.2l1.6-0.5c0.8-0.3,1.3-0.6,1.6-1c0.3-0.4,0.3-1,0.1-1.6
		c-0.2-0.6-0.5-1.1-1-1.2c-0.5-0.2-1.1-0.1-2,0.2l-1.5,0.5L254.2,81.2z"/>
	<path fill="#F88379" d="M266.1,83.3c-1.1,0.3-2.1,0.2-2.9-0.3c-0.8-0.5-1.4-1.3-1.8-2.5c-0.3-1.2-0.3-2.2,0.1-3.1
		c0.4-0.9,1.1-1.5,2.1-1.7c0.9-0.3,1.7-0.2,2.5,0.3c0.7,0.5,1.2,1.2,1.5,2.2l0.2,0.7l-5.1,1.5c0.3,0.9,0.7,1.5,1.2,1.8
		c0.5,0.3,1.2,0.4,2,0.2c0.8-0.2,1.5-0.6,2.2-1.2l0.3,1c-0.3,0.3-0.7,0.5-1,0.7C267.1,83,266.6,83.2,266.1,83.3z M263.9,76.7
		c-0.6,0.2-1,0.5-1.3,1c-0.2,0.5-0.3,1.1-0.2,1.8l3.9-1.1c-0.2-0.7-0.5-1.2-0.9-1.5C265,76.5,264.5,76.5,263.9,76.7z"/>
	<path fill="#F88379" d="M273.4,81.3c-1,0.3-1.8,0.1-2.5-0.4c-0.7-0.5-1.2-1.4-1.5-2.6c-0.3-1.2-0.3-2.2,0.1-3.1
		c0.4-0.8,1-1.4,2-1.6c1-0.3,1.9-0.1,2.7,0.5l0.1,0L274,73l0.9-0.2l2.8,10.8l-1.1,0.3l-0.8-3.2c-0.1-0.5-0.2-0.8-0.2-1.2l-0.1,0
		C275.1,80.5,274.4,81,273.4,81.3z M273.3,80.3c0.8-0.2,1.2-0.5,1.5-1c0.2-0.5,0.2-1.2,0-2.2l-0.1-0.3c-0.3-1-0.6-1.7-1.1-2.1
		c-0.5-0.4-1.1-0.4-1.9-0.2c-0.7,0.2-1.1,0.6-1.3,1.2c-0.2,0.6-0.2,1.4,0,2.3c0.2,0.9,0.6,1.6,1.1,2C272,80.4,272.6,80.5,273.3,80.3
		z"/>
	<path fill="#F88379" d="M278.5,71.9l1.1,4.9c0.1,0.6,0.4,1,0.7,1.3s0.8,0.3,1.4,0.1c0.8-0.2,1.3-0.5,1.6-1c0.3-0.5,0.3-1.3,0-2.2
		l-0.9-3.9l1.1-0.3l1.8,7.5l-0.9,0.2l-0.4-1l-0.1,0c-0.1,0.4-0.4,0.8-0.8,1.1c-0.4,0.3-0.8,0.5-1.3,0.6c-0.9,0.2-1.6,0.2-2.2-0.2
		c-0.6-0.3-0.9-1-1.2-1.9l-1.2-4.9L278.5,71.9z"/>
	<path fill="#F88379" d="M290.9,77.2c-1.1,0.2-2.1,0.1-2.9-0.5c-0.8-0.5-1.3-1.4-1.6-2.6c-0.3-1.2-0.2-2.2,0.3-3.1
		c0.4-0.8,1.2-1.4,2.2-1.6c0.9-0.2,1.8,0,2.4,0.5c0.7,0.5,1.1,1.3,1.3,2.3l0.2,0.7l-5.2,1.1c0.2,0.9,0.6,1.5,1.1,1.9
		c0.5,0.4,1.2,0.5,1.9,0.3c0.8-0.2,1.6-0.5,2.3-1l0.2,1c-0.4,0.3-0.7,0.5-1.1,0.6C291.9,76.9,291.4,77,290.9,77.2z M289.2,70.4
		c-0.6,0.1-1,0.4-1.3,0.9c-0.3,0.5-0.4,1.1-0.3,1.8l3.9-0.8c-0.2-0.7-0.4-1.2-0.8-1.6C290.3,70.3,289.8,70.2,289.2,70.4z"/>
	<path fill="#F88379" d="M300.1,73c0.1,0.7,0,1.3-0.5,1.8s-1.2,0.8-2.1,1c-1,0.2-1.8,0.2-2.4,0l-0.2-1.1c0.4,0.1,0.8,0.2,1.3,0.2
		s0.8,0,1.2-0.1c0.6-0.1,1-0.3,1.3-0.6c0.3-0.3,0.4-0.6,0.3-1c-0.1-0.3-0.2-0.5-0.5-0.7c-0.3-0.2-0.8-0.3-1.6-0.5
		c-0.8-0.1-1.3-0.3-1.6-0.4c-0.3-0.1-0.6-0.3-0.8-0.5c-0.2-0.2-0.3-0.5-0.4-0.8c-0.1-0.6,0-1.2,0.5-1.6c0.4-0.5,1.1-0.8,2-0.9
		c0.8-0.2,1.6-0.1,2.5,0l-0.2,1c-0.8-0.2-1.5-0.2-2.2-0.1c-0.5,0.1-0.9,0.3-1.2,0.5c-0.2,0.2-0.3,0.5-0.3,0.8c0,0.2,0.1,0.4,0.3,0.5
		c0.1,0.1,0.3,0.2,0.6,0.3s0.7,0.2,1.4,0.3c1,0.2,1.6,0.4,2,0.6C299.7,72.2,300,72.5,300.1,73z"/>
	<path fill="#F88379" d="M304.6,73.5c0.2,0,0.4-0.1,0.6-0.1c0.2-0.1,0.3-0.1,0.4-0.2l0.2,0.9c-0.1,0.1-0.3,0.2-0.5,0.2
		c-0.2,0.1-0.4,0.1-0.6,0.2c-1.5,0.3-2.3-0.4-2.6-1.9l-0.8-4.5l-1.1,0.2l-0.1-0.6l1-0.7l0.2-1.7l0.7-0.1l0.3,1.8l2.2-0.4l0.2,0.9
		l-2.2,0.4l0.8,4.5c0.1,0.5,0.3,0.8,0.5,1C303.9,73.5,304.2,73.6,304.6,73.5z"/>
</g>
<g>
	<path fill="#F88379" d="M239,172.2l0.4,4.3l-1.2,0.1l-0.9-10.2l2.8-0.3c1.3-0.1,2.2,0,2.8,0.5c0.6,0.4,1,1.1,1.1,2.1
		c0.1,1.4-0.5,2.3-1.8,2.9l3.2,4.4L244,176l-2.9-4L239,172.2z M238.9,171.2l1.6-0.1c0.8-0.1,1.4-0.3,1.8-0.7
		c0.4-0.4,0.5-0.9,0.5-1.6c-0.1-0.7-0.3-1.1-0.7-1.4c-0.4-0.3-1.1-0.4-2-0.3l-1.5,0.1L238.9,171.2z"/>
	<path fill="#F88379" d="M250.2,175.6c-1.1,0.1-2.1-0.1-2.8-0.8c-0.7-0.6-1.2-1.5-1.3-2.8c-0.1-1.2,0.1-2.2,0.6-3
		c0.5-0.8,1.3-1.2,2.3-1.3c1-0.1,1.8,0.1,2.4,0.7c0.6,0.6,1,1.4,1.1,2.4l0.1,0.7l-5.3,0.6c0.1,0.9,0.4,1.6,0.9,2
		c0.5,0.4,1.1,0.6,1.9,0.5c0.8-0.1,1.6-0.3,2.4-0.8l0.1,1c-0.4,0.2-0.8,0.4-1.1,0.5C251.1,175.4,250.7,175.5,250.2,175.6z
		 M249.1,168.6c-0.6,0.1-1.1,0.3-1.4,0.8c-0.3,0.4-0.5,1-0.5,1.7l4-0.4c-0.1-0.7-0.3-1.3-0.7-1.6
		C250.2,168.7,249.7,168.6,249.1,168.6z"/>
	<path fill="#F88379" d="M259.7,172.2c0.1,0.7-0.1,1.3-0.6,1.7c-0.5,0.4-1.2,0.7-2.2,0.8c-1,0.1-1.8,0.1-2.4-0.2l-0.1-1.1
		c0.4,0.1,0.8,0.2,1.2,0.3c0.4,0.1,0.8,0.1,1.2,0c0.6-0.1,1.1-0.2,1.4-0.5c0.3-0.2,0.4-0.5,0.4-0.9c0-0.3-0.2-0.5-0.5-0.7
		c-0.3-0.2-0.8-0.4-1.6-0.6c-0.7-0.2-1.3-0.4-1.6-0.5c-0.3-0.2-0.6-0.4-0.8-0.6c-0.2-0.2-0.3-0.5-0.3-0.9c-0.1-0.6,0.1-1.1,0.6-1.6
		c0.5-0.4,1.1-0.7,2-0.8c0.8-0.1,1.6,0,2.5,0.2l-0.3,1c-0.8-0.2-1.5-0.3-2.1-0.2c-0.5,0.1-1,0.2-1.2,0.4c-0.3,0.2-0.4,0.5-0.3,0.8
		c0,0.2,0.1,0.4,0.2,0.5c0.1,0.1,0.3,0.2,0.6,0.4c0.2,0.1,0.7,0.2,1.4,0.4c0.9,0.2,1.6,0.5,2,0.8
		C259.4,171.3,259.6,171.7,259.7,172.2z"/>
	<path fill="#F88379" d="M265.5,173.7c-0.5,0.1-1,0-1.4-0.1c-0.4-0.1-0.8-0.4-1.1-0.7l-0.1,0c0.1,0.4,0.2,0.9,0.3,1.3l0.4,3.1
		l-1.2,0.2l-1.5-11.1l0.9-0.1l0.3,1l0.1,0c0.2-0.5,0.5-0.8,0.9-1c0.4-0.2,0.8-0.4,1.3-0.5c1-0.1,1.8,0.1,2.5,0.7
		c0.6,0.6,1,1.6,1.2,2.8c0.2,1.3,0,2.3-0.5,3C267.2,173.1,266.5,173.6,265.5,173.7z M264.4,166.8c-0.8,0.1-1.3,0.4-1.6,0.9
		c-0.3,0.5-0.4,1.2-0.3,2.1l0,0.3c0.1,1.1,0.4,1.8,0.8,2.2c0.4,0.4,1,0.6,1.8,0.5c0.7-0.1,1.1-0.4,1.4-1c0.3-0.6,0.4-1.3,0.3-2.3
		c-0.1-1-0.4-1.7-0.9-2.1C265.6,166.9,265.1,166.7,264.4,166.8z"/>
	<path fill="#F88379" d="M276.7,168.1c0.2,1.2,0,2.3-0.5,3.1c-0.5,0.8-1.3,1.3-2.4,1.4c-0.7,0.1-1.3,0-1.9-0.2
		c-0.6-0.2-1.1-0.6-1.4-1.2c-0.4-0.6-0.6-1.2-0.7-2c-0.2-1.2,0-2.3,0.5-3c0.5-0.8,1.3-1.3,2.4-1.4c1.1-0.2,2,0.1,2.7,0.7
		S276.6,166.8,276.7,168.1z M270.9,168.9c0.1,1,0.5,1.7,0.9,2.1c0.5,0.5,1.1,0.6,1.8,0.5c0.8-0.1,1.3-0.5,1.6-1
		c0.3-0.6,0.4-1.3,0.3-2.3c-0.1-1-0.5-1.7-0.9-2.1c-0.5-0.4-1.1-0.6-1.8-0.5c-0.8,0.1-1.3,0.4-1.6,1
		C270.9,167.2,270.8,167.9,270.9,168.9z"/>
	<path fill="#F88379" d="M284.6,170.7l-0.8-4.9c-0.1-0.6-0.3-1.1-0.7-1.3c-0.3-0.3-0.8-0.3-1.4-0.2c-0.8,0.1-1.3,0.4-1.6,0.9
		c-0.3,0.5-0.4,1.2-0.2,2.2l0.7,4l-1.2,0.2l-1.3-7.6l0.9-0.2l0.4,1l0.1,0c0.2-0.4,0.5-0.8,0.8-1c0.4-0.3,0.8-0.5,1.4-0.5
		c0.9-0.2,1.6-0.1,2.2,0.3c0.5,0.4,0.9,1,1.1,2l0.8,5L284.6,170.7z"/>
	<path fill="#F88379" d="M292.7,167c0.1,0.7,0,1.3-0.5,1.8c-0.5,0.5-1.2,0.8-2.1,1c-1,0.2-1.8,0.2-2.4,0l-0.2-1.1
		c0.4,0.1,0.8,0.2,1.3,0.2c0.4,0,0.8,0,1.2-0.1c0.6-0.1,1-0.3,1.3-0.5c0.3-0.3,0.4-0.6,0.3-1c-0.1-0.3-0.2-0.5-0.5-0.7
		c-0.3-0.2-0.8-0.3-1.6-0.5c-0.8-0.1-1.3-0.3-1.6-0.4c-0.3-0.1-0.6-0.3-0.8-0.5c-0.2-0.2-0.3-0.5-0.4-0.9c-0.1-0.6,0-1.2,0.5-1.6
		c0.4-0.5,1.1-0.8,2-0.9c0.8-0.2,1.6-0.1,2.5,0.1l-0.2,1c-0.8-0.2-1.5-0.2-2.2-0.1c-0.5,0.1-0.9,0.3-1.2,0.5
		c-0.2,0.2-0.3,0.5-0.3,0.8c0,0.2,0.1,0.4,0.3,0.5c0.1,0.1,0.3,0.2,0.6,0.3c0.3,0.1,0.7,0.2,1.4,0.3c1,0.2,1.6,0.4,2,0.6
		C292.4,166.2,292.6,166.5,292.7,167z"/>
	<path fill="#F88379" d="M298.3,168.2c-1.1,0.2-2.1,0.1-2.9-0.5c-0.8-0.5-1.3-1.4-1.5-2.6c-0.2-1.2-0.1-2.2,0.3-3.1
		c0.5-0.8,1.2-1.4,2.2-1.6c0.9-0.2,1.8,0,2.4,0.5c0.7,0.5,1.1,1.3,1.3,2.3l0.1,0.7l-5.2,1.1c0.2,0.9,0.6,1.5,1.1,1.9
		c0.5,0.4,1.2,0.5,1.9,0.3c0.8-0.2,1.6-0.5,2.3-1l0.2,1c-0.4,0.3-0.7,0.5-1.1,0.6C299.2,168,298.8,168.1,298.3,168.2z M296.6,161.4
		c-0.6,0.1-1,0.4-1.3,0.9c-0.3,0.5-0.4,1.1-0.3,1.8l3.9-0.8c-0.1-0.7-0.4-1.2-0.8-1.6C297.7,161.4,297.2,161.3,296.6,161.4z"/>
</g>
<g>
	<path fill="#F88379" d="M244.1,227.2l-0.4,4.3l-1.2-0.1l1-10.2l2.8,0.3c1.3,0.1,2.2,0.5,2.7,1c0.6,0.5,0.8,1.3,0.7,2.3
		c-0.1,1.4-0.9,2.2-2.3,2.5l2.3,4.9l-1.4-0.1l-2.1-4.5L244.1,227.2z M244.2,226.2l1.6,0.2c0.8,0.1,1.5,0,1.9-0.3
		c0.4-0.3,0.7-0.8,0.7-1.4c0.1-0.7-0.1-1.2-0.5-1.5c-0.4-0.3-1-0.6-1.9-0.6l-1.5-0.2L244.2,226.2z"/>
	<path fill="#F88379" d="M254.4,232.7c-1.1-0.1-2-0.6-2.6-1.3c-0.6-0.8-0.8-1.8-0.7-3c0.1-1.2,0.6-2.2,1.2-2.8
		c0.7-0.7,1.5-0.9,2.6-0.8c1,0.1,1.7,0.5,2.2,1.2c0.5,0.7,0.7,1.6,0.6,2.6l-0.1,0.7l-5.3-0.6c-0.1,0.9,0.1,1.6,0.4,2.1
		c0.4,0.5,1,0.8,1.7,0.9c0.8,0.1,1.7,0,2.5-0.2l-0.1,1c-0.4,0.1-0.8,0.2-1.2,0.2C255.3,232.8,254.9,232.8,254.4,232.7z M254.8,225.7
		c-0.6-0.1-1.1,0.1-1.5,0.4c-0.4,0.4-0.7,0.9-0.8,1.6l4,0.5c0.1-0.7,0-1.3-0.3-1.7C255.9,226.1,255.4,225.8,254.8,225.7z"/>
	<path fill="#F88379" d="M264.3,231.7c-0.1,0.7-0.4,1.2-1,1.5c-0.6,0.3-1.3,0.4-2.3,0.3c-1-0.1-1.8-0.4-2.3-0.8l0.1-1.1
		c0.3,0.2,0.7,0.4,1.1,0.6c0.4,0.2,0.8,0.3,1.2,0.3c0.6,0.1,1.1,0,1.4-0.1c0.3-0.2,0.6-0.4,0.6-0.8c0-0.3-0.1-0.6-0.3-0.8
		c-0.2-0.2-0.7-0.6-1.4-0.9c-0.7-0.4-1.2-0.7-1.4-0.9c-0.3-0.2-0.5-0.5-0.6-0.8c-0.1-0.3-0.1-0.6-0.1-0.9c0.1-0.6,0.4-1.1,0.9-1.4
		c0.6-0.3,1.3-0.4,2.2-0.3c0.8,0.1,1.6,0.4,2.3,0.8l-0.5,0.9c-0.7-0.4-1.4-0.7-2-0.7c-0.5-0.1-1,0-1.3,0.1c-0.3,0.1-0.5,0.4-0.5,0.7
		c0,0.2,0,0.4,0.1,0.5c0.1,0.2,0.2,0.3,0.5,0.5c0.2,0.2,0.6,0.4,1.3,0.7c0.9,0.4,1.4,0.9,1.7,1.2
		C264.3,230.8,264.4,231.2,264.3,231.7z"/>
	<path fill="#F88379" d="M269.4,234.7c-0.5-0.1-0.9-0.2-1.3-0.5c-0.4-0.2-0.7-0.6-0.9-1l-0.1,0c0,0.5,0,0.9-0.1,1.3l-0.4,3.1
		l-1.2-0.2l1.6-11.1l0.9,0.1l0,1.1l0.1,0c0.4-0.4,0.7-0.6,1.2-0.8c0.4-0.1,0.9-0.2,1.4-0.1c1,0.1,1.7,0.6,2.2,1.4
		c0.5,0.8,0.6,1.8,0.4,3c-0.2,1.3-0.6,2.2-1.3,2.8C271.2,234.6,270.4,234.8,269.4,234.7z M270.2,227.7c-0.8-0.1-1.4,0-1.8,0.4
		c-0.4,0.4-0.7,1-0.8,2l0,0.3c-0.2,1.1-0.1,1.9,0.2,2.4c0.3,0.5,0.8,0.8,1.6,0.9c0.7,0.1,1.2-0.1,1.7-0.6c0.4-0.5,0.7-1.2,0.9-2.1
		c0.1-1,0.1-1.7-0.2-2.3C271.4,228.2,270.9,227.8,270.2,227.7z"/>
	<path fill="#F88379" d="M281.7,232.5c-0.2,1.2-0.7,2.2-1.4,2.8c-0.7,0.6-1.7,0.8-2.8,0.6c-0.7-0.1-1.3-0.4-1.7-0.8
		c-0.5-0.4-0.8-0.9-1-1.6c-0.2-0.6-0.2-1.4-0.1-2.2c0.2-1.2,0.7-2.2,1.4-2.7c0.7-0.6,1.6-0.8,2.7-0.6c1.1,0.2,1.9,0.7,2.4,1.5
		C281.7,230.3,281.9,231.3,281.7,232.5z M275.9,231.6c-0.2,1-0.1,1.7,0.2,2.3c0.3,0.6,0.8,0.9,1.6,1c0.8,0.1,1.4,0,1.8-0.5
		c0.5-0.4,0.8-1.2,0.9-2.1c0.2-1,0.1-1.7-0.2-2.3c-0.3-0.6-0.8-0.9-1.6-1c-0.8-0.1-1.4,0-1.8,0.5C276.3,229.9,276,230.6,275.9,231.6
		z"/>
	<path fill="#F88379" d="M288.2,237.6l0.9-4.9c0.1-0.6,0.1-1.1-0.2-1.5c-0.2-0.4-0.6-0.6-1.2-0.7c-0.8-0.1-1.4,0-1.9,0.3
		s-0.8,1-0.9,2l-0.7,4l-1.1-0.2l1.4-7.6l0.9,0.2l0,1.1l0.1,0c0.3-0.3,0.7-0.6,1.1-0.7c0.5-0.1,1-0.1,1.5-0.1c0.9,0.2,1.6,0.5,1.9,1
		c0.4,0.5,0.5,1.3,0.3,2.2l-0.9,4.9L288.2,237.6z"/>
	<path fill="#F88379" d="M296.9,237.1c-0.1,0.7-0.5,1.2-1.1,1.5c-0.6,0.3-1.4,0.3-2.3,0.1c-1-0.2-1.8-0.5-2.3-0.9l0.2-1.1
		c0.3,0.3,0.7,0.5,1.1,0.7c0.4,0.2,0.8,0.3,1.2,0.4c0.6,0.1,1.1,0.1,1.4,0c0.4-0.1,0.6-0.4,0.7-0.8c0.1-0.3,0-0.6-0.2-0.8
		c-0.2-0.3-0.7-0.6-1.3-1c-0.7-0.4-1.1-0.7-1.4-1c-0.3-0.3-0.4-0.5-0.5-0.8s-0.1-0.6,0-0.9c0.1-0.6,0.5-1.1,1-1.3
		c0.6-0.3,1.3-0.3,2.2-0.1c0.8,0.2,1.6,0.5,2.3,1l-0.6,0.9c-0.7-0.5-1.4-0.8-2-0.9c-0.5-0.1-1-0.1-1.3,0c-0.3,0.1-0.5,0.3-0.6,0.6
		c0,0.2,0,0.4,0.1,0.5c0.1,0.2,0.2,0.3,0.4,0.5c0.2,0.2,0.6,0.4,1.2,0.8c0.8,0.5,1.4,1,1.6,1.3S297,236.6,296.9,237.1z"/>
	<path fill="#F88379" d="M301.4,240.4c-1.1-0.2-1.9-0.8-2.4-1.6c-0.5-0.8-0.6-1.8-0.4-3c0.3-1.2,0.8-2.1,1.5-2.7
		c0.8-0.6,1.6-0.8,2.6-0.6c0.9,0.2,1.6,0.7,2,1.4c0.4,0.7,0.5,1.6,0.3,2.6l-0.2,0.7l-5.2-1.1c-0.2,0.9-0.1,1.6,0.2,2.2
		c0.3,0.5,0.9,0.9,1.6,1.1c0.8,0.2,1.6,0.2,2.5,0l-0.2,1c-0.4,0.1-0.8,0.1-1.2,0.1C302.3,240.6,301.9,240.5,301.4,240.4z
		 M302.6,233.5c-0.6-0.1-1.1,0-1.6,0.3c-0.4,0.3-0.8,0.8-1,1.5l3.9,0.9c0.2-0.7,0.1-1.3-0.1-1.8
		C303.6,233.9,303.2,233.6,302.6,233.5z"/>
</g>
<g>
	<path fill="#F88379" d="M265.7,319.5l-1.2,4.1l-1.1-0.3l2.9-9.9l2.7,0.8c1.2,0.4,2,0.8,2.5,1.5s0.5,1.4,0.3,2.3
		c-0.4,1.3-1.3,2-2.8,2.1l1.4,5.2l-1.4-0.4l-1.2-4.8L265.7,319.5z M266,318.5l1.6,0.5c0.8,0.2,1.5,0.2,1.9,0c0.5-0.2,0.8-0.6,1-1.3
		c0.2-0.7,0.1-1.2-0.2-1.6c-0.3-0.4-0.9-0.7-1.7-1l-1.5-0.4L266,318.5z"/>
	<path fill="#F88379" d="M274.9,326.6c-1.1-0.3-1.9-0.9-2.3-1.7c-0.5-0.8-0.5-1.9-0.2-3c0.3-1.2,0.9-2.1,1.6-2.6
		c0.8-0.6,1.7-0.7,2.7-0.4c0.9,0.2,1.6,0.7,2,1.5c0.4,0.8,0.4,1.6,0.2,2.6l-0.2,0.7l-5.1-1.4c-0.2,0.9-0.2,1.6,0.1,2.2
		c0.3,0.6,0.8,0.9,1.6,1.1c0.8,0.2,1.6,0.3,2.5,0.1l-0.3,1c-0.4,0.1-0.9,0.1-1.2,0.1C275.8,326.8,275.4,326.7,274.9,326.6z
		 M276.3,319.8c-0.6-0.2-1.1-0.1-1.6,0.2c-0.5,0.3-0.8,0.8-1.1,1.5l3.9,1c0.2-0.7,0.2-1.3,0-1.8
		C277.3,320.2,276.9,319.9,276.3,319.8z"/>
	<path fill="#F88379" d="M282.1,328.4c-1-0.2-1.6-0.7-2-1.6c-0.4-0.8-0.4-1.8-0.1-3c0.3-1.2,0.8-2.1,1.5-2.7
		c0.7-0.6,1.6-0.7,2.5-0.5c1,0.2,1.7,0.8,2.1,1.7l0.1,0l0.4-1l0.9,0.2l-2.6,10.9l-1.1-0.3l0.8-3.2c0.1-0.5,0.2-0.8,0.4-1.1l-0.1,0
		C284.1,328.5,283.2,328.7,282.1,328.4z M282.5,327.5c0.8,0.2,1.4,0.1,1.8-0.2c0.4-0.3,0.8-1,1-1.9l0.1-0.3c0.2-1,0.3-1.8,0-2.4
		c-0.2-0.5-0.8-0.9-1.5-1.1c-0.7-0.2-1.2,0-1.7,0.4c-0.5,0.4-0.8,1.1-1.1,2.1c-0.2,0.9-0.2,1.7,0,2.3S281.9,327.4,282.5,327.5z"/>
	<path fill="#F88379" d="M290.7,322.4l-1,4.9c-0.1,0.6-0.1,1.1,0.1,1.5c0.2,0.4,0.6,0.6,1.2,0.7c0.8,0.2,1.4,0.1,1.9-0.3
		c0.5-0.4,0.8-1,1-2l0.8-4l1.1,0.2l-1.6,7.5l-0.9-0.2l0.1-1l-0.1,0c-0.3,0.3-0.7,0.5-1.2,0.6c-0.5,0.1-1,0.1-1.5,0
		c-0.9-0.2-1.6-0.6-1.9-1.1c-0.4-0.5-0.4-1.3-0.2-2.2l1.1-4.9L290.7,322.4z"/>
	<path fill="#F88379" d="M299.8,332.2c-1.1-0.2-1.9-0.7-2.5-1.5c-0.5-0.8-0.7-1.8-0.4-3c0.2-1.2,0.7-2.1,1.5-2.7s1.6-0.8,2.6-0.6
		c0.9,0.2,1.6,0.6,2.1,1.4c0.4,0.7,0.6,1.6,0.4,2.6l-0.1,0.7l-5.2-1c-0.1,0.9-0.1,1.6,0.3,2.2c0.3,0.5,0.9,0.9,1.7,1
		c0.8,0.2,1.7,0.1,2.5,0l-0.2,1c-0.4,0.1-0.8,0.1-1.2,0.2C300.8,332.4,300.3,332.3,299.8,332.2z M300.8,325.3
		c-0.6-0.1-1.1,0-1.6,0.3c-0.4,0.3-0.8,0.8-1,1.5l4,0.8c0.1-0.7,0.1-1.3-0.2-1.8C301.9,325.7,301.4,325.4,300.8,325.3z"/>
	<path fill="#F88379" d="M309.8,331.7c-0.1,0.7-0.5,1.2-1.1,1.5c-0.6,0.3-1.4,0.4-2.3,0.2c-1-0.2-1.8-0.5-2.3-0.9l0.2-1.1
		c0.3,0.2,0.7,0.5,1.1,0.6c0.4,0.2,0.8,0.3,1.2,0.4c0.6,0.1,1.1,0.1,1.4,0c0.4-0.1,0.6-0.4,0.6-0.8c0.1-0.3,0-0.6-0.3-0.8
		c-0.2-0.3-0.7-0.6-1.4-1c-0.7-0.4-1.1-0.7-1.4-1c-0.3-0.2-0.4-0.5-0.5-0.8c-0.1-0.3-0.1-0.6-0.1-0.9c0.1-0.6,0.4-1.1,1-1.3
		c0.6-0.3,1.3-0.3,2.2-0.2c0.8,0.1,1.6,0.4,2.3,0.9l-0.6,0.9c-0.7-0.4-1.4-0.7-2-0.8c-0.5-0.1-1-0.1-1.3,0c-0.3,0.1-0.5,0.3-0.5,0.6
		c0,0.2,0,0.4,0.1,0.5s0.2,0.3,0.4,0.5c0.2,0.2,0.6,0.4,1.2,0.8c0.8,0.5,1.4,0.9,1.7,1.3C309.8,330.8,309.9,331.2,309.8,331.7z"/>
	<path fill="#F88379" d="M313.9,333.7c0.2,0,0.4,0,0.6,0c0.2,0,0.3,0,0.5,0l-0.1,0.9c-0.1,0-0.3,0.1-0.6,0.1c-0.2,0-0.5,0-0.7,0
		c-1.5-0.2-2.1-1.1-1.8-2.7l0.7-4.5l-1.1-0.2l0.1-0.6l1.2-0.3l0.7-1.5l0.7,0.1l-0.3,1.8l2.2,0.4l-0.1,0.9l-2.2-0.4l-0.7,4.5
		c-0.1,0.5,0,0.8,0.2,1.1C313.2,333.5,313.5,333.6,313.9,333.7z"/>
</g>
</svg>
