<svg xmlns="http://www.w3.org/2000/svg" viewBox="0 0 573.5 465" xml:space="preserve"><path fill="#F88379" d="M521.5 190h-126c-6.6 0-12-5.4-12-12V52c0-6.6 5.4-12 12-12h126c6.6 0 12 5.4 12 12v126c0 6.6-5.4 12-12 12z"/><path fill="#2E3336" d="M446.5 106.7h-34.3c-6.6 0-12-5.4-12-12v-26c0-6.6 5.4-12 12-12h34.3c6.6 0 12 5.4 12 12v26c0 6.6-5.4 12-12 12z"/><g fill="#F5F8FA"><path d="M429 167.5c-1.2 0-2.1.4-2.8 1.2-.7.8-1 1.9-1 3.2 0 1.4.3 2.5 1 3.2.7.8 1.6 1.1 2.8 1.1.7 0 1.6-.1 2.6-.4v1.1c-.7.3-1.7.4-2.7.4-1.6 0-2.8-.5-3.7-1.4-.9-1-1.3-2.3-1.3-4.1 0-1.1.2-2.1.6-2.9.4-.8 1-1.5 1.8-1.9.8-.4 1.7-.7 2.7-.7 1.1 0 2.1.2 2.9.6l-.5 1.1c-.8-.3-1.6-.5-2.4-.5zM437.2 171.5h3v1h-3v3.1h-1v-3.1h-3v-1h3v-3.1h1v3.1zM445.8 171.5h3v1h-3v3.1h-1v-3.1h-3v-1h3v-3.1h1v3.1zM459.5 167.5c-1.2 0-2.1.4-2.8 1.2-.7.8-1 1.9-1 3.2 0 1.4.3 2.5 1 3.2.7.8 1.6 1.1 2.8 1.1.7 0 1.6-.1 2.6-.4v1.1c-.7.3-1.7.4-2.7.4-1.6 0-2.8-.5-3.7-1.4-.9-1-1.3-2.3-1.3-4.1 0-1.1.2-2.1.6-2.9.4-.8 1-1.5 1.8-1.9.8-.4 1.7-.7 2.7-.7 1.1 0 2.1.2 2.9.6l-.5 1.1c-.7-.3-1.6-.5-2.4-.5zM465.4 177.3h-1.2v-11.4h1.2v11.4zM467.9 167.1c0-.3.1-.5.2-.6s.3-.2.5-.2.4.1.5.2.2.3.2.6-.1.5-.2.6c-.1.1-.3.2-.5.2s-.4-.1-.5-.2c-.1-.2-.2-.4-.2-.6zm1.3 10.2H468v-8h1.2v8zM475.2 177.4c-1.2 0-2.1-.4-2.8-1.1-.7-.7-1-1.7-1-3s.3-2.3 1-3.1c.6-.8 1.5-1.1 2.6-1.1 1 0 1.8.3 2.4 1s.9 1.5.9 2.6v.8h-5.5c0 .9.3 1.7.7 2.1.5.5 1.1.7 1.9.7.9 0 1.7-.2 2.6-.5v1.1c-.4.2-.8.3-1.2.4-.6.1-1.1.1-1.6.1zm-.3-7.3c-.6 0-1.2.2-1.5.6-.4.4-.6 1-.7 1.7h4.2c0-.8-.2-1.4-.5-1.8-.4-.3-.9-.5-1.5-.5zM485.7 177.3v-5.2c0-.7-.1-1.1-.4-1.5s-.8-.5-1.4-.5c-.8 0-1.5.2-1.8.7s-.6 1.2-.6 2.2v4.2h-1.2v-8h1l.2 1.1h.1c.2-.4.6-.7 1-.9.4-.2.9-.3 1.5-.3 1 0 1.7.2 2.2.7s.7 1.2.7 2.2v5.2h-1.3zM492 176.4h.6c.2 0 .4-.1.5-.1v.9c-.1.1-.3.1-.6.2-.3 0-.5.1-.7.1-1.6 0-2.3-.8-2.3-2.5v-4.8h-1.1v-.6l1.1-.5.5-1.7h.7v1.9h2.3v.9h-2.3v4.7c0 .5.1.9.3 1.1s.6.4 1 .4z"/></g><g fill="#F5F8FA"><path d="m426.9 86.1-1.3-3.4h-4.3l-1.3 3.4h-1.3l4.2-10.8h1l4.2 10.8h-1.2zm-1.7-4.6-1.2-3.3c-.2-.4-.3-.9-.5-1.5-.1.5-.3 1-.5 1.5l-1.3 3.3h3.5zM436.5 78.5c0 1.1-.4 1.9-1.1 2.5-.7.6-1.8.9-3.2.9h-1.3v4.2h-1.2V75.4h2.8c2.6 0 4 1 4 3.1zm-5.6 2.3h1.1c1.1 0 1.9-.2 2.4-.5s.7-.9.7-1.7c0-.7-.2-1.2-.7-1.6s-1.2-.5-2.2-.5h-1.4v4.3zM438.7 86.1V75.4h1.2v10.7h-1.2z"/></g><path fill="#F88379" d="M521.5 424h-126c-6.6 0-12-5.4-12-12V286c0-6.6 5.4-12 12-12h126c6.6 0 12 5.4 12 12v126c0 6.6-5.4 12-12 12z"/><path fill="#2E3336" d="M446.5 340.7h-34.3c-6.6 0-12-5.4-12-12v-26c0-6.6 5.4-12 12-12h34.3c6.6 0 12 5.4 12 12v26c0 6.6-5.4 12-12 12z"/><g fill="#F5F8FA"><path d="M419.6 403.7c0 1.1-.4 1.9-1.1 2.5-.7.6-1.8.9-3.2.9H414v4.2h-1.2v-10.7h2.8c2.6 0 4 1 4 3.1zM414 406h1.1c1.1 0 1.9-.2 2.4-.5s.7-.9.7-1.7c0-.7-.2-1.2-.7-1.6s-1.2-.5-2.2-.5H414v4.3zM420.4 403.2h1.3l1.8 4.6c.4 1 .6 1.8.7 2.3h.1c.1-.2.2-.7.4-1.3s.9-2.5 2-5.6h1.3l-3.4 9.1c-.3.9-.7 1.5-1.2 1.9-.5.4-1 .6-1.7.6-.4 0-.7 0-1.1-.1v-1c.3.1.6.1.9.1.8 0 1.4-.5 1.8-1.4l.4-1.1-3.3-8.1zM431.8 410.4h.6c.2 0 .4-.1.5-.1v.9c-.1.1-.3.1-.6.2-.3 0-.5.1-.7.1-1.6 0-2.3-.8-2.3-2.5v-4.8h-1.1v-.6l1.1-.5.5-1.7h.7v1.9h2.3v.9h-2.3v4.7c0 .5.1.9.3 1.1s.6.4 1 .4zM440 411.3v-5.2c0-.7-.1-1.1-.4-1.5s-.8-.5-1.4-.5c-.8 0-1.5.2-1.8.7-.4.5-.6 1.2-.6 2.3v4.2h-1.2v-11.4h1.2v3.4c0 .4 0 .8-.1 1h.1c.2-.4.6-.7 1-.9.4-.2.9-.3 1.5-.3 1 0 1.7.2 2.2.7.5.5.7 1.2.7 2.2v5.2H440zM450.6 407.3c0 1.3-.3 2.3-1 3.1s-1.6 1.1-2.7 1.1c-.7 0-1.4-.2-1.9-.5s-1-.8-1.3-1.5-.5-1.4-.5-2.2c0-1.3.3-2.3 1-3.1s1.6-1.1 2.7-1.1 2 .4 2.7 1.1 1 1.8 1 3.1zm-6.1 0c0 1 .2 1.8.6 2.3s1 .8 1.8.8 1.4-.3 1.8-.8c.4-.5.6-1.3.6-2.3 0-1-.2-1.8-.6-2.3-.4-.5-1-.8-1.8-.8s-1.4.3-1.8.8-.6 1.2-.6 2.3zM458.2 411.3v-5.2c0-.7-.1-1.1-.4-1.5s-.8-.5-1.4-.5c-.8 0-1.5.2-1.8.7s-.6 1.2-.6 2.2v4.2h-1.2v-8h1l.2 1.1h.1c.2-.4.6-.7 1-.9.4-.2.9-.3 1.5-.3 1 0 1.7.2 2.2.7s.7 1.2.7 2.2v5.2h-1.3zM470.6 401.5c-1.2 0-2.1.4-2.8 1.2-.7.8-1 1.9-1 3.2 0 1.4.3 2.5 1 3.2.7.8 1.6 1.1 2.8 1.1.7 0 1.6-.1 2.6-.4v1.1c-.7.3-1.7.4-2.7.4-1.6 0-2.8-.5-3.7-1.4-.9-1-1.3-2.3-1.3-4.1 0-1.1.2-2.1.6-2.9.4-.8 1-1.5 1.8-1.9.8-.4 1.7-.7 2.7-.7 1.1 0 2.1.2 2.9.6l-.5 1.1c-.8-.3-1.6-.5-2.4-.5zM476.5 411.3h-1.2v-11.4h1.2v11.4zM479 401.1c0-.3.1-.5.2-.6s.3-.2.5-.2.4.1.5.2.2.3.2.6-.1.5-.2.6c-.1.1-.3.2-.5.2s-.4-.1-.5-.2c-.1-.2-.2-.4-.2-.6zm1.3 10.2h-1.2v-8h1.2v8zM486.3 411.4c-1.2 0-2.1-.4-2.8-1.1-.7-.7-1-1.7-1-3s.3-2.3 1-3.1c.6-.8 1.5-1.1 2.6-1.1 1 0 1.8.3 2.4 1s.9 1.5.9 2.6v.8h-5.5c0 .9.3 1.7.7 2.1s1.1.7 1.9.7c.9 0 1.7-.2 2.6-.5v1.1c-.4.2-.8.3-1.2.4-.6.1-1.1.1-1.6.1zm-.3-7.3c-.6 0-1.2.2-1.5.6-.4.4-.6 1-.7 1.7h4.2c0-.8-.2-1.4-.5-1.8-.4-.3-.9-.5-1.5-.5zM496.8 411.3v-5.2c0-.7-.1-1.1-.4-1.5s-.8-.5-1.4-.5c-.8 0-1.5.2-1.8.7s-.6 1.2-.6 2.2v4.2h-1.2v-8h1l.2 1.1h.1c.2-.4.6-.7 1-.9.4-.2.9-.3 1.5-.3 1 0 1.7.2 2.2.7s.7 1.2.7 2.2v5.2h-1.3zM503.1 410.4h.6c.2 0 .4-.1.5-.1v.9c-.1.1-.3.1-.6.2-.3 0-.5.1-.7.1-1.6 0-2.3-.8-2.3-2.5v-4.8h-1.1v-.6l1.1-.5.5-1.7h.7v1.9h2.3v.9h-2.3v4.7c0 .5.1.9.3 1.1s.6.4 1 .4z"/></g><g fill="#F5F8FA"><path d="m426.9 320.1-1.3-3.4h-4.3l-1.3 3.4h-1.3l4.2-10.8h1l4.2 10.8h-1.2zm-1.7-4.6-1.2-3.3c-.2-.4-.3-.9-.5-1.5-.1.5-.3 1-.5 1.5l-1.3 3.3h3.5zM436.5 312.5c0 1.1-.4 1.9-1.1 2.5-.7.6-1.8.9-3.2.9h-1.3v4.2h-1.2v-10.7h2.8c2.6 0 4 1 4 3.1zm-5.6 2.3h1.1c1.1 0 1.9-.2 2.4-.5s.7-.9.7-1.7c0-.7-.2-1.2-.7-1.6s-1.2-.5-2.2-.5h-1.4v4.3zM438.7 320.1v-10.7h1.2v10.7h-1.2z"/></g><path fill="#F88379" d="M179 307H53c-6.6 0-12-5.4-12-12V169c0-6.6 5.4-12 12-12h126c6.6 0 12 5.4 12 12v126c0 6.6-5.4 12-12 12z"/><path fill="#2E3336" d="M162.3 223.7H69.7c-6.6 0-12-5.4-12-12v-26c0-6.6 5.4-12 12-12h92.7c6.6 0 12 5.4 12 12v26c-.1 6.6-5.5 12-12.1 12z"/><g fill="#F5F8FA"><path d="M100.8 293.3c0 .9-.3 1.7-1 2.2s-1.6.8-2.8.8c-1.3 0-2.2-.2-2.9-.5v-1.2c.4.2.9.3 1.4.4s1 .2 1.5.2c.8 0 1.5-.2 1.9-.5.4-.3.6-.8.6-1.3 0-.4-.1-.7-.2-.9-.1-.2-.4-.5-.7-.7-.3-.2-.9-.4-1.6-.7-1-.4-1.7-.8-2.1-1.3s-.6-1.1-.6-1.9c0-.8.3-1.5.9-2s1.4-.7 2.5-.7 2 .2 2.9.6l-.4 1.1c-.9-.4-1.7-.6-2.6-.6-.7 0-1.2.1-1.5.4s-.6.7-.6 1.2c0 .4.1.7.2.9.1.2.4.5.7.7.3.2.8.4 1.5.7 1.1.4 1.9.8 2.3 1.3.4.5.6 1.1.6 1.8zM106.2 296.3c-1.2 0-2.1-.4-2.8-1.1-.7-.7-1-1.7-1-3s.3-2.3 1-3.1c.6-.8 1.5-1.1 2.6-1.1 1 0 1.8.3 2.4 1s.9 1.5.9 2.6v.8h-5.5c0 .9.3 1.7.7 2.1s1.1.7 1.9.7c.9 0 1.7-.2 2.6-.5v1.1c-.4.2-.8.3-1.2.4-.6.1-1 .1-1.6.1zm-.3-7.3c-.6 0-1.2.2-1.5.6-.4.4-.6 1-.7 1.7h4.2c0-.8-.2-1.4-.5-1.8-.4-.3-.9-.5-1.5-.5zM114.9 288c.4 0 .7 0 1 .1l-.2 1.1c-.3-.1-.6-.1-.9-.1-.6 0-1.2.3-1.7.8s-.7 1.2-.7 2v4.3h-1.2v-8h1l.1 1.5h.1c.3-.5.7-.9 1.1-1.2s.9-.5 1.4-.5zM119.1 296.2l-3-8h1.3l1.7 4.8c.4 1.1.6 1.8.7 2.2h.1c.1-.3.2-.8.5-1.6s.9-2.6 1.9-5.3h1.3l-3 8h-1.5zM128.3 296.3c-1.2 0-2.1-.4-2.8-1.1-.7-.7-1-1.7-1-3s.3-2.3 1-3.1c.6-.8 1.5-1.1 2.6-1.1 1 0 1.8.3 2.4 1s.9 1.5.9 2.6v.8h-5.5c0 .9.3 1.7.7 2.1s1.1.7 1.9.7c.9 0 1.7-.2 2.6-.5v1.1c-.4.2-.8.3-1.2.4-.6.1-1.1.1-1.6.1zm-.4-7.3c-.6 0-1.2.2-1.5.6-.4.4-.6 1-.7 1.7h4.2c0-.8-.2-1.4-.5-1.8-.3-.3-.8-.5-1.5-.5zM137 288c.4 0 .7 0 1 .1l-.2 1.1c-.3-.1-.6-.1-.9-.1-.6 0-1.2.3-1.7.8s-.7 1.2-.7 2v4.3h-1.2v-8h1l.1 1.5h.1c.3-.5.7-.9 1.1-1.2s.9-.5 1.4-.5z"/></g><g fill="#F5F8FA"><path d="M103.9 193.3c-1.2 0-2.1.4-2.8 1.2-.7.8-1 1.9-1 3.2 0 1.4.3 2.5 1 3.2.7.8 1.6 1.1 2.8 1.1.7 0 1.6-.1 2.6-.4v1.1c-.7.3-1.7.4-2.7.4-1.6 0-2.8-.5-3.7-1.4-.9-1-1.3-2.3-1.3-4.1 0-1.1.2-2.1.6-2.9.4-.8 1-1.5 1.8-1.9.8-.4 1.7-.7 2.7-.7 1.1 0 2.1.2 2.9.6l-.5 1.1c-.8-.3-1.6-.5-2.4-.5zM115.5 199c0 1.3-.3 2.3-1 3.1s-1.6 1.1-2.7 1.1c-.7 0-1.4-.2-1.9-.5s-1-.8-1.3-1.5-.5-1.4-.5-2.2c0-1.3.3-2.3 1-3.1s1.6-1.1 2.7-1.1 2 .4 2.7 1.1 1 1.9 1 3.1zm-6.1 0c0 1 .2 1.8.6 2.3s1 .8 1.8.8 1.4-.3 1.8-.8c.4-.5.6-1.3.6-2.3 0-1-.2-1.8-.6-2.3-.4-.5-1-.8-1.8-.8s-1.4.3-1.8.8-.6 1.3-.6 2.3zM121.3 194.9c.4 0 .7 0 1 .1l-.2 1.1c-.3-.1-.6-.1-.9-.1-.6 0-1.2.3-1.7.8s-.7 1.2-.7 2v4.3h-1.2v-8h1l.1 1.5h.1c.3-.5.7-.9 1.1-1.2s.9-.5 1.4-.5zM128.7 203.1l-.2-1.1h-.1c-.4.5-.8.8-1.2 1-.4.2-.9.3-1.5.3-.8 0-1.4-.2-1.9-.6s-.7-1-.7-1.8c0-1.6 1.3-2.5 3.9-2.5h1.4v-.5c0-.6-.1-1.1-.4-1.4-.3-.3-.7-.5-1.3-.5-.7 0-1.4.2-2.3.6l-.4-.9c.4-.2.8-.4 1.3-.5s.9-.2 1.4-.2c1 0 1.7.2 2.1.6.5.4.7 1.1.7 2v5.5h-.8zm-2.8-.9c.8 0 1.4-.2 1.8-.6.4-.4.6-1 .6-1.7v-.7l-1.2.1c-1 0-1.7.2-2.1.5-.4.3-.6.7-.6 1.2 0 .4.1.8.4 1s.6.2 1.1.2zM133.3 203.1h-1.2v-11.4h1.2v11.4z"/></g><path fill="none" stroke="#2E3336" stroke-width="3" stroke-miterlimit="10" d="M161.7 232.6c10.4 51.3 113.4 91.4 239.1 91.4"/><path fill="#2E3336" d="m156.1 235 4.7-11 7.1 9.6z"/><path fill="none" stroke="#2E3336" stroke-width="3" stroke-miterlimit="10" d="M161.7 164.8c10.4-51.3 113.4-91.4 239.1-91.4"/><path fill="#2E3336" d="m167.9 163.8-7.1 9.6-4.7-11z"/><path fill="none" stroke="#2E3336" stroke-width="3" stroke-miterlimit="10" d="M412.5 282.3c-12.7-40.2-114.6-71.5-238.7-71.5"/><path fill="#2E3336" d="m417.8 279.5-4 11.3-7.7-9.1z"/><path fill="none" stroke="#2E3336" stroke-width="3" stroke-miterlimit="10" d="M412.5 115.7c-12.7 40.2-114.6 71.5-238.7 71.5"/><path fill="#2E3336" d="m406.1 116.3 7.7-9.1 4 11.2z"/><g fill="#F88379"><path d="m254.6 82.2 1.3 4.1-1.1.4-3.1-9.8 2.7-.9c1.2-.4 2.2-.4 2.9-.2.7.3 1.2.9 1.5 1.8.4 1.3 0 2.4-1.1 3.3l4.1 3.6-1.3.4-3.7-3.3-2.2.6zm-.4-1 1.6-.5c.8-.3 1.3-.6 1.6-1 .3-.4.3-1 .1-1.6-.2-.6-.5-1.1-1-1.2-.5-.2-1.1-.1-2 .2l-1.5.5 1.2 3.6zM266.1 83.3c-1.1.3-2.1.2-2.9-.3-.8-.5-1.4-1.3-1.8-2.5-.3-1.2-.3-2.2.1-3.1.4-.9 1.1-1.5 2.1-1.7.9-.3 1.7-.2 2.5.3.7.5 1.2 1.2 1.5 2.2l.2.7-5.1 1.5c.3.9.7 1.5 1.2 1.8.5.3 1.2.4 2 .2s1.5-.6 2.2-1.2l.3 1c-.3.3-.7.5-1 .7-.3.1-.8.3-1.3.4zm-2.2-6.6c-.6.2-1 .5-1.3 1-.2.5-.3 1.1-.2 1.8l3.9-1.1c-.2-.7-.5-1.2-.9-1.5-.4-.4-.9-.4-1.5-.2zM273.4 81.3c-1 .3-1.8.1-2.5-.4s-1.2-1.4-1.5-2.6c-.3-1.2-.3-2.2.1-3.1.4-.8 1-1.4 2-1.6 1-.3 1.9-.1 2.7.5h.1L274 73l.9-.2 2.8 10.8-1.1.3-.8-3.2c-.1-.5-.2-.8-.2-1.2h-.1c-.4 1-1.1 1.5-2.1 1.8zm-.1-1c.8-.2 1.2-.5 1.5-1 .2-.5.2-1.2 0-2.2l-.1-.3c-.3-1-.6-1.7-1.1-2.1-.5-.4-1.1-.4-1.9-.2-.7.2-1.1.6-1.3 1.2-.2.6-.2 1.4 0 2.3.2.9.6 1.6 1.1 2 .5.4 1.1.5 1.8.3zM278.5 71.9l1.1 4.9c.1.6.4 1 .7 1.3s.8.3 1.4.1c.8-.2 1.3-.5 1.6-1 .3-.5.3-1.3 0-2.2l-.9-3.9 1.1-.3 1.8 7.5-.9.2-.4-1h-.1c-.1.4-.4.8-.8 1.1-.4.3-.8.5-1.3.6-.9.2-1.6.2-2.2-.2-.6-.3-.9-1-1.2-1.9l-1.2-4.9 1.3-.3zM290.9 77.2c-1.1.2-2.1.1-2.9-.5-.8-.5-1.3-1.4-1.6-2.6-.3-1.2-.2-2.2.3-3.1.4-.8 1.2-1.4 2.2-1.6.9-.2 1.8 0 2.4.5.7.5 1.1 1.3 1.3 2.3l.2.7-5.2 1.1c.2.9.6 1.5 1.1 1.9.5.4 1.2.5 1.9.3.8-.2 1.6-.5 2.3-1l.2 1c-.4.3-.7.5-1.1.6-.1.1-.6.2-1.1.4zm-1.7-6.8c-.6.1-1 .4-1.3.9-.3.5-.4 1.1-.3 1.8l3.9-.8c-.2-.7-.4-1.2-.8-1.6-.4-.4-.9-.5-1.5-.3zM300.1 73c.1.7 0 1.3-.5 1.8s-1.2.8-2.1 1c-1 .2-1.8.2-2.4 0l-.2-1.1c.4.1.8.2 1.3.2s.8 0 1.2-.1c.6-.1 1-.3 1.3-.6.3-.3.4-.6.3-1-.1-.3-.2-.5-.5-.7-.3-.2-.8-.3-1.6-.5-.8-.1-1.3-.3-1.6-.4-.3-.1-.6-.3-.8-.5-.2-.2-.3-.5-.4-.8-.1-.6 0-1.2.5-1.6.4-.5 1.1-.8 2-.9.8-.2 1.6-.1 2.5 0l-.2 1c-.8-.2-1.5-.2-2.2-.1-.5.1-.9.3-1.2.5-.2.2-.3.5-.3.8 0 .2.1.4.3.5.1.1.3.2.6.3s.7.2 1.4.3c1 .2 1.6.4 2 .6.2.5.5.8.6 1.3zM304.6 73.5c.2 0 .4-.1.6-.1.2-.1.3-.1.4-.2l.2.9c-.1.1-.3.2-.5.2-.2.1-.4.1-.6.2-1.5.3-2.3-.4-2.6-1.9l-.8-4.5-1.1.2-.1-.6 1-.7.2-1.7.7-.1.3 1.8 2.2-.4.2.9-2.2.4.8 4.5c.1.5.3.8.5 1 .1.1.4.2.8.1z"/></g><g fill="#F88379"><path d="m239 172.2.4 4.3-1.2.1-.9-10.2 2.8-.3c1.3-.1 2.2 0 2.8.5.6.4 1 1.1 1.1 2.1.1 1.4-.5 2.3-1.8 2.9l3.2 4.4H244l-2.9-4-2.1.2zm-.1-1 1.6-.1c.8-.1 1.4-.3 1.8-.7.4-.4.5-.9.5-1.6-.1-.7-.3-1.1-.7-1.4-.4-.3-1.1-.4-2-.3l-1.5.1.3 4zM250.2 175.6c-1.1.1-2.1-.1-2.8-.8-.7-.6-1.2-1.5-1.3-2.8-.1-1.2.1-2.2.6-3 .5-.8 1.3-1.2 2.3-1.3 1-.1 1.8.1 2.4.7.6.6 1 1.4 1.1 2.4l.1.7-5.3.6c.1.9.4 1.6.9 2 .5.4 1.1.6 1.9.5.8-.1 1.6-.3 2.4-.8l.1 1c-.4.2-.8.4-1.1.5-.4.1-.8.2-1.3.3zm-1.1-7c-.6.1-1.1.3-1.4.8-.3.4-.5 1-.5 1.7l4-.4c-.1-.7-.3-1.3-.7-1.6-.3-.4-.8-.5-1.4-.5zM259.7 172.2c.1.7-.1 1.3-.6 1.7-.5.4-1.2.7-2.2.8-1 .1-1.8.1-2.4-.2l-.1-1.1 1.2.3c.4.1.8.1 1.2 0 .6-.1 1.1-.2 1.4-.5.3-.2.4-.5.4-.9 0-.3-.2-.5-.5-.7-.3-.2-.8-.4-1.6-.6-.7-.2-1.3-.4-1.6-.5-.3-.2-.6-.4-.8-.6-.2-.2-.3-.5-.3-.9-.1-.6.1-1.1.6-1.6.5-.4 1.1-.7 2-.8.8-.1 1.6 0 2.5.2l-.3 1c-.8-.2-1.5-.3-2.1-.2-.5.1-1 .2-1.2.4-.3.2-.4.5-.3.8 0 .2.1.4.2.5.1.1.3.2.6.4.2.1.7.2 1.4.4.9.2 1.6.5 2 .8.2.4.4.8.5 1.3zM265.5 173.7c-.5.1-1 0-1.4-.1-.4-.1-.8-.4-1.1-.7h-.1c.1.4.2.9.3 1.3l.4 3.1-1.2.2-1.5-11.1.9-.1.3 1h.1c.2-.5.5-.8.9-1 .4-.2.8-.4 1.3-.5 1-.1 1.8.1 2.5.7.6.6 1 1.6 1.2 2.8.2 1.3 0 2.3-.5 3-.4.8-1.1 1.3-2.1 1.4zm-1.1-6.9c-.8.1-1.3.4-1.6.9-.3.5-.4 1.2-.3 2.1v.3c.1 1.1.4 1.8.8 2.2.4.4 1 .6 1.8.5.7-.1 1.1-.4 1.4-1 .3-.6.4-1.3.3-2.3-.1-1-.4-1.7-.9-2.1-.3-.5-.8-.7-1.5-.6zM276.7 168.1c.2 1.2 0 2.3-.5 3.1-.5.8-1.3 1.3-2.4 1.4-.7.1-1.3 0-1.9-.2-.6-.2-1.1-.6-1.4-1.2-.4-.6-.6-1.2-.7-2-.2-1.2 0-2.3.5-3 .5-.8 1.3-1.3 2.4-1.4 1.1-.2 2 .1 2.7.7s1.2 1.3 1.3 2.6zm-5.8.8c.1 1 .5 1.7.9 2.1.5.5 1.1.6 1.8.5.8-.1 1.3-.5 1.6-1 .3-.6.4-1.3.3-2.3-.1-1-.5-1.7-.9-2.1-.5-.4-1.1-.6-1.8-.5-.8.1-1.3.4-1.6 1-.3.6-.4 1.3-.3 2.3zM284.6 170.7l-.8-4.9c-.1-.6-.3-1.1-.7-1.3-.3-.3-.8-.3-1.4-.2-.8.1-1.3.4-1.6.9-.3.5-.4 1.2-.2 2.2l.7 4-1.2.2-1.3-7.6.9-.2.4 1h.1c.2-.4.5-.8.8-1 .4-.3.8-.5 1.4-.5.9-.2 1.6-.1 2.2.3.5.4.9 1 1.1 2l.8 5-1.2.1zM292.7 167c.1.7 0 1.3-.5 1.8s-1.2.8-2.1 1c-1 .2-1.8.2-2.4 0l-.2-1.1c.4.1.8.2 1.3.2.4 0 .8 0 1.2-.1.6-.1 1-.3 1.3-.5.3-.3.4-.6.3-1-.1-.3-.2-.5-.5-.7-.3-.2-.8-.3-1.6-.5-.8-.1-1.3-.3-1.6-.4-.3-.1-.6-.3-.8-.5-.2-.2-.3-.5-.4-.9-.1-.6 0-1.2.5-1.6.4-.5 1.1-.8 2-.9.8-.2 1.6-.1 2.5.1l-.2 1c-.8-.2-1.5-.2-2.2-.1-.5.1-.9.3-1.2.5-.2.2-.3.5-.3.8 0 .2.1.4.3.5.1.1.3.2.6.3.3.1.7.2 1.4.3 1 .2 1.6.4 2 .6.3.4.5.7.6 1.2zM298.3 168.2c-1.1.2-2.1.1-2.9-.5-.8-.5-1.3-1.4-1.5-2.6-.2-1.2-.1-2.2.3-3.1.5-.8 1.2-1.4 2.2-1.6.9-.2 1.8 0 2.4.5.7.5 1.1 1.3 1.3 2.3l.1.7-5.2 1.1c.2.9.6 1.5 1.1 1.9.5.4 1.2.5 1.9.3.8-.2 1.6-.5 2.3-1l.2 1c-.4.3-.7.5-1.1.6-.2.2-.6.3-1.1.4zm-1.7-6.8c-.6.1-1 .4-1.3.9-.3.5-.4 1.1-.3 1.8l3.9-.8c-.1-.7-.4-1.2-.8-1.6-.4-.3-.9-.4-1.5-.3z"/></g><g fill="#F88379"><path d="m244.1 227.2-.4 4.3-1.2-.1 1-10.2 2.8.3c1.3.1 2.2.5 2.7 1 .6.5.8 1.3.7 2.3-.1 1.4-.9 2.2-2.3 2.5l2.3 4.9-1.4-.1-2.1-4.5-2.1-.4zm.1-1 1.6.2c.8.1 1.5 0 1.9-.3.4-.3.7-.8.7-1.4.1-.7-.1-1.2-.5-1.5-.4-.3-1-.6-1.9-.6l-1.5-.2-.3 3.8zM254.4 232.7c-1.1-.1-2-.6-2.6-1.3-.6-.8-.8-1.8-.7-3 .1-1.2.6-2.2 1.2-2.8.7-.7 1.5-.9 2.6-.8 1 .1 1.7.5 2.2 1.2.5.7.7 1.6.6 2.6l-.1.7-5.3-.6c-.1.9.1 1.6.4 2.1.4.5 1 .8 1.7.9.8.1 1.7 0 2.5-.2l-.1 1c-.4.1-.8.2-1.2.2-.3.1-.7.1-1.2 0zm.4-7c-.6-.1-1.1.1-1.5.4-.4.4-.7.9-.8 1.6l4 .5c.1-.7 0-1.3-.3-1.7-.3-.4-.8-.7-1.4-.8zM264.3 231.7c-.1.7-.4 1.2-1 1.5-.6.3-1.3.4-2.3.3-1-.1-1.8-.4-2.3-.8l.1-1.1c.3.2.7.4 1.1.6.4.2.8.3 1.2.3.6.1 1.1 0 1.4-.1.3-.2.6-.4.6-.8 0-.3-.1-.6-.3-.8-.2-.2-.7-.6-1.4-.9-.7-.4-1.2-.7-1.4-.9-.3-.2-.5-.5-.6-.8-.1-.3-.1-.6-.1-.9.1-.6.4-1.1.9-1.4.6-.3 1.3-.4 2.2-.3.8.1 1.6.4 2.3.8l-.5.9c-.7-.4-1.4-.7-2-.7-.5-.1-1 0-1.3.1-.3.1-.5.4-.5.7 0 .2 0 .4.1.5.1.2.2.3.5.5.2.2.6.4 1.3.7.9.4 1.4.9 1.7 1.2.3.5.4.9.3 1.4zM269.4 234.7c-.5-.1-.9-.2-1.3-.5-.4-.2-.7-.6-.9-1h-.1c0 .5 0 .9-.1 1.3l-.4 3.1-1.2-.2 1.6-11.1.9.1v1.1h.1c.4-.4.7-.6 1.2-.8.4-.1.9-.2 1.4-.1 1 .1 1.7.6 2.2 1.4.5.8.6 1.8.4 3-.2 1.3-.6 2.2-1.3 2.8-.7.8-1.5 1-2.5.9zm.8-7c-.8-.1-1.4 0-1.8.4-.4.4-.7 1-.8 2v.3c-.2 1.1-.1 1.9.2 2.4.3.5.8.8 1.6.9.7.1 1.2-.1 1.7-.6.4-.5.7-1.2.9-2.1.1-1 .1-1.7-.2-2.3-.4-.5-.9-.9-1.6-1zM281.7 232.5c-.2 1.2-.7 2.2-1.4 2.8-.7.6-1.7.8-2.8.6-.7-.1-1.3-.4-1.7-.8-.5-.4-.8-.9-1-1.6-.2-.6-.2-1.4-.1-2.2.2-1.2.7-2.2 1.4-2.7.7-.6 1.6-.8 2.7-.6 1.1.2 1.9.7 2.4 1.5s.7 1.8.5 3zm-5.8-.9c-.2 1-.1 1.7.2 2.3.3.6.8.9 1.6 1 .8.1 1.4 0 1.8-.5.5-.4.8-1.2.9-2.1.2-1 .1-1.7-.2-2.3-.3-.6-.8-.9-1.6-1-.8-.1-1.4 0-1.8.5-.5.4-.8 1.1-.9 2.1zM288.2 237.6l.9-4.9c.1-.6.1-1.1-.2-1.5-.2-.4-.6-.6-1.2-.7-.8-.1-1.4 0-1.9.3s-.8 1-.9 2l-.7 4-1.1-.2 1.4-7.6.9.2v1.1h.1c.3-.3.7-.6 1.1-.7.5-.1 1-.1 1.5-.1.9.2 1.6.5 1.9 1 .4.5.5 1.3.3 2.2l-.9 4.9h-1.2zM296.9 237.1c-.1.7-.5 1.2-1.1 1.5-.6.3-1.4.3-2.3.1-1-.2-1.8-.5-2.3-.9l.2-1.1c.3.3.7.5 1.1.7.4.2.8.3 1.2.4.6.1 1.1.1 1.4 0 .4-.1.6-.4.7-.8.1-.3 0-.6-.2-.8-.2-.3-.7-.6-1.3-1-.7-.4-1.1-.7-1.4-1-.3-.3-.4-.5-.5-.8s-.1-.6 0-.9c.1-.6.5-1.1 1-1.3.6-.3 1.3-.3 2.2-.1.8.2 1.6.5 2.3 1l-.6.9c-.7-.5-1.4-.8-2-.9-.5-.1-1-.1-1.3 0-.3.1-.5.3-.6.6 0 .2 0 .4.1.5.1.2.2.3.4.5s.6.4 1.2.8c.8.5 1.4 1 1.6 1.3s.3.8.2 1.3zM301.4 240.4c-1.1-.2-1.9-.8-2.4-1.6s-.6-1.8-.4-3c.3-1.2.8-2.1 1.5-2.7.8-.6 1.6-.8 2.6-.6.9.2 1.6.7 2 1.4.4.7.5 1.6.3 2.6l-.2.7-5.2-1.1c-.2.9-.1 1.6.2 2.2.3.5.9.9 1.6 1.1.8.2 1.6.2 2.5 0l-.2 1c-.4.1-.8.1-1.2.1-.2.1-.6 0-1.1-.1zm1.2-6.9c-.6-.1-1.1 0-1.6.3-.4.3-.8.8-1 1.5l3.9.9c.2-.7.1-1.3-.1-1.8s-.6-.8-1.2-.9z"/></g><g fill="#F88379"><path d="m265.7 319.5-1.2 4.1-1.1-.3 2.9-9.9 2.7.8c1.2.4 2 .8 2.5 1.5s.5 1.4.3 2.3c-.4 1.3-1.3 2-2.8 2.1l1.4 5.2-1.4-.4-1.2-4.8-2.1-.6zm.3-1 1.6.5c.8.2 1.5.2 1.9 0 .5-.2.8-.6 1-1.3.2-.7.1-1.2-.2-1.6-.3-.4-.9-.7-1.7-1l-1.5-.4-1.1 3.8zM274.9 326.6c-1.1-.3-1.9-.9-2.3-1.7-.5-.8-.5-1.9-.2-3 .3-1.2.9-2.1 1.6-2.6.8-.6 1.7-.7 2.7-.4.9.2 1.6.7 2 1.5.4.8.4 1.6.2 2.6l-.2.7-5.1-1.4c-.2.9-.2 1.6.1 2.2.3.6.8.9 1.6 1.1.8.2 1.6.3 2.5.1l-.3 1c-.4.1-.9.1-1.2.1-.5 0-.9-.1-1.4-.2zm1.4-6.8c-.6-.2-1.1-.1-1.6.2-.5.3-.8.8-1.1 1.5l3.9 1c.2-.7.2-1.3 0-1.8s-.6-.8-1.2-.9zM282.1 328.4c-1-.2-1.6-.7-2-1.6-.4-.8-.4-1.8-.1-3 .3-1.2.8-2.1 1.5-2.7.7-.6 1.6-.7 2.5-.5 1 .2 1.7.8 2.1 1.7h.1l.4-1 .9.2-2.6 10.9-1.1-.3.8-3.2c.1-.5.2-.8.4-1.1h-.1c-.8.7-1.7.9-2.8.6zm.4-.9c.8.2 1.4.1 1.8-.2.4-.3.8-1 1-1.9l.1-.3c.2-1 .3-1.8 0-2.4-.2-.5-.8-.9-1.5-1.1-.7-.2-1.2 0-1.7.4s-.8 1.1-1.1 2.1c-.2.9-.2 1.7 0 2.3s.8 1 1.4 1.1zM290.7 322.4l-1 4.9c-.1.6-.1 1.1.1 1.5.2.4.6.6 1.2.7.8.2 1.4.1 1.9-.3s.8-1 1-2l.8-4 1.1.2-1.6 7.5-.9-.2.1-1h-.1c-.3.3-.7.5-1.2.6-.5.1-1 .1-1.5 0-.9-.2-1.6-.6-1.9-1.1-.4-.5-.4-1.3-.2-2.2l1.1-4.9 1.1.3zM299.8 332.2c-1.1-.2-1.9-.7-2.5-1.5-.5-.8-.7-1.8-.4-3 .2-1.2.7-2.1 1.5-2.7s1.6-.8 2.6-.6c.9.2 1.6.6 2.1 1.4.4.7.6 1.6.4 2.6l-.1.7-5.2-1c-.1.9-.1 1.6.3 2.2.3.5.9.9 1.7 1 .8.2 1.7.1 2.5 0l-.2 1c-.4.1-.8.1-1.2.2l-1.5-.3zm1-6.9c-.6-.1-1.1 0-1.6.3-.4.3-.8.8-1 1.5l4 .8c.1-.7.1-1.3-.2-1.8-.1-.4-.6-.7-1.2-.8zM309.8 331.7c-.1.7-.5 1.2-1.1 1.5-.6.3-1.4.4-2.3.2-1-.2-1.8-.5-2.3-.9l.2-1.1c.3.2.7.5 1.1.6.4.2.8.3 1.2.4.6.1 1.1.1 1.4 0 .4-.1.6-.4.6-.8.1-.3 0-.6-.3-.8-.2-.3-.7-.6-1.4-1s-1.1-.7-1.4-1c-.3-.2-.4-.5-.5-.8-.1-.3-.1-.6-.1-.9.1-.6.4-1.1 1-1.3.6-.3 1.3-.3 2.2-.2.8.1 1.6.4 2.3.9l-.6.9c-.7-.4-1.4-.7-2-.8-.5-.1-1-.1-1.3 0-.3.1-.5.3-.5.6 0 .2 0 .4.1.5s.2.3.4.5.6.4 1.2.8c.8.5 1.4.9 1.7 1.3.4.5.5.9.4 1.4zM313.9 333.7h1.1l-.1.9c-.1 0-.3.1-.6.1h-.7c-1.5-.2-2.1-1.1-1.8-2.7l.7-4.5-1.1-.2.1-.6 1.2-.3.7-1.5.7.1-.3 1.8 2.2.4-.1.9-2.2-.4-.7 4.5c-.1.5 0 .8.2 1.1 0 .2.3.3.7.4z"/></g></svg>